<svg width="1300" height="347" viewBox="0 0 1300 347" fill="none" xmlns="http://www.w3.org/2000/svg">
<rect width="1300" height="347" rx="11" fill="#161C2D"/>
<mask id="mask0_132_3718" style="mask-type:alpha" maskUnits="userSpaceOnUse" x="3" y="0" width="1297" height="347">
<path d="M3 11C3 4.92488 7.92487 0 14 0H1289C1295.08 0 1300 4.92487 1300 11V336C1300 342.075 1295.08 347 1289 347H14C7.92484 347 3 342.075 3 336V11Z" fill="white"/>
</mask>
<g mask="url(#mask0_132_3718)">
<g opacity="0.2">
<g clip-path="url(#clip0_132_3718)">
<path opacity="0.09" d="M855.75 -56.0556C961.245 19.8838 1044.4 121.492 1086.84 239.38C1180.95 501.25 1043.46 844.091 746.288 924.725C468.664 1000.02 150.39 840.859 100.179 566.428C72.7975 416.196 51.6919 271.328 -113.022 200.815C-146.615 186.426 -182.485 176.732 -214.972 160.239C-392.955 69.9411 -118.583 -60.7809 -39.3641 -99.6194C140.504 -187.784 351.819 -225.281 552.078 -186.625C662.464 -164.995 766.249 -120.371 855.75 -56.0556Z" fill="white"/>
<path opacity="0.09" d="M1193.61 403.648C1188.47 374.46 1209.55 346.898 1240.69 342.087C1271.83 337.276 1301.23 357.037 1306.36 386.226C1311.49 415.414 1290.41 442.976 1259.27 447.787C1228.14 452.598 1198.74 432.837 1193.61 403.648Z" fill="white"/>
<path opacity="0.23" d="M657.02 -126.812C759.686 -74.6211 846.775 2.90358 900.953 99.8171C1021.08 314.801 952.14 630.021 706.125 738.367C476.306 839.579 176.732 742.544 92.8624 510.884C46.7815 384.095 7.39966 261.086 -145.867 221.089C-177.152 212.949 -209.704 209.138 -240.175 199.047C-407.881 143.686 -188.989 -5.20555 -125.932 -49.1352C17.1557 -148.853 195.073 -208.696 374.518 -201.014C473.428 -196.438 569.974 -171.079 657.02 -126.812Z" fill="white"/>
<path opacity="0.23" d="M369.933 587.311C161.091 587.311 -8.20984 428.603 -8.20984 232.826C-8.20984 37.0485 161.091 -121.66 369.933 -121.66C578.776 -121.66 748.076 37.0485 748.076 232.826C748.076 428.603 578.776 587.311 369.933 587.311Z" fill="white"/>
</g>
</g>
</g>
<defs>
<clipPath id="clip0_132_3718">
<rect width="1920" height="881.406" rx="11" transform="matrix(-1 0 0 1 1617.5 -0.228027)" fill="white"/>
</clipPath>
</defs>
</svg>
