<svg width="635" height="475" viewBox="0 0 635 475" fill="none" xmlns="http://www.w3.org/2000/svg">
<path d="M281.312 132.483C260.426 56.7096 166.292 32.2892 112.343 88.9297C111.57 89.7442 110.797 90.5725 110.024 91.4146C32.6765 175.485 69.2174 382.666 230.622 435.179C392.026 487.691 559.918 391.804 569.347 306.077C578.776 220.364 504.313 193.417 388.754 217.396C323.458 230.938 294.316 179.654 281.312 132.483Z" fill="#CADFF5"/>
<path d="M78.3422 311.668C65.2553 294.136 45.5285 297.643 41.18 318.709C39.7443 325.666 40.0618 334.377 43.5958 345.172C57.0139 386.338 84.2368 397.727 98.0829 371.235C106.614 354.877 91.3048 329.048 78.3422 311.668Z" fill="#CADFF5"/>
<path d="M577.671 313.559C576.871 329.2 590.951 338.242 604.397 330.387C608.842 327.792 613.066 323.388 616.393 316.224C629.025 288.932 617.884 268.584 595.769 273.899C582.103 277.184 578.458 298.057 577.671 313.559Z" fill="#CADFF5"/>
<path d="M52.6932 183.45C50.4016 193.804 39.5926 197.186 32.2209 189.649C29.7913 187.164 27.8172 183.519 26.9337 178.26C23.5792 158.174 34.5125 146.882 47.9996 154.323C56.3377 158.92 54.9572 173.194 52.6932 183.45Z" fill="#CADFF5"/>
<path d="M419.525 58.3663C419.525 60.078 418.835 61.638 417.689 62.77C416.571 63.9019 415.011 64.606 413.299 64.606H280.111C276.688 64.606 273.885 61.8036 273.885 58.3801C273.885 56.6683 274.59 55.1084 275.722 53.9764C276.84 52.8444 278.4 52.1404 280.111 52.1404H286.406C288.891 46.3562 294.634 42.3252 301.315 42.3252C305.816 42.3252 309.874 44.1613 312.828 47.1155C316.749 40.4616 323.983 35.9889 332.279 35.9889C334.557 35.9889 336.752 36.334 338.823 36.9552C343.157 28.8105 351.716 23.261 361.6 23.261C373.459 23.261 383.426 31.2677 386.435 42.1596C388.616 41.069 391.087 40.4478 393.696 40.4478C401.096 40.4478 407.321 45.3899 409.296 52.1404H413.299C416.722 52.1404 419.525 54.9427 419.525 58.3663Z" fill="#CADFF5"/>
<path d="M499.067 168.251C499.067 169.853 498.418 171.316 497.342 172.379C496.293 173.442 494.829 174.104 493.228 174.104H368.268C365.051 174.104 362.429 171.481 362.429 168.265C362.429 166.664 363.077 165.2 364.154 164.137C365.203 163.074 366.667 162.412 368.268 162.412H374.176C376.509 156.987 381.893 153.204 388.161 153.204C392.385 153.204 396.195 154.93 398.956 157.691C402.642 151.451 409.42 147.254 417.206 147.254C419.345 147.254 421.402 147.572 423.335 148.165C427.407 140.518 435.442 135.313 444.704 135.313C455.831 135.313 465.191 142.823 468.007 153.052C470.05 152.031 472.369 151.437 474.826 151.437C481.77 151.437 487.623 156.075 489.459 162.412H493.228C496.444 162.412 499.067 165.035 499.067 168.251Z" fill="#CADFF5"/>
<path d="M530.142 73.3857C525.297 73.3857 521.362 69.4514 521.362 64.6059C521.362 59.7605 525.297 55.8262 530.142 55.8262C534.988 55.8262 538.922 59.7605 538.922 64.6059C538.922 69.4514 534.974 73.3857 530.142 73.3857ZM530.142 58.5733C526.815 58.5733 524.109 61.279 524.109 64.6059C524.109 67.9329 526.815 70.6386 530.142 70.6386C533.469 70.6386 536.175 67.9329 536.175 64.6059C536.161 61.279 533.455 58.5733 530.142 58.5733Z" fill="#473BF0"/>
<path d="M561.755 104.198C556.909 104.198 552.975 100.263 552.975 95.418C552.975 90.5725 556.909 86.6382 561.755 86.6382C566.6 86.6382 570.535 90.5725 570.535 95.418C570.535 100.25 566.6 104.198 561.755 104.198ZM561.755 89.3853C558.428 89.3853 555.722 92.091 555.722 95.418C555.722 98.7449 558.428 101.451 561.755 101.451C565.082 101.451 567.788 98.7449 567.788 95.418C567.774 92.091 565.082 89.3853 561.755 89.3853Z" fill="#FD7C78"/>
<path d="M572.606 132.732C571.847 132.732 571.225 132.111 571.225 131.351V125.277C571.225 124.518 571.847 123.897 572.606 123.897C573.365 123.897 573.986 124.518 573.986 125.277V131.351C573.986 132.111 573.365 132.732 572.606 132.732Z" fill="#473BF0"/>
<path d="M572.606 143.362C571.847 143.362 571.225 142.74 571.225 141.981V135.907C571.225 135.148 571.847 134.527 572.606 134.527C573.365 134.527 573.986 135.148 573.986 135.907V141.981C573.986 142.74 573.365 143.362 572.606 143.362Z" fill="#473BF0"/>
<path d="M581.137 135.01H575.684C574.925 135.01 574.304 134.389 574.304 133.629C574.304 132.87 574.925 132.249 575.684 132.249H581.137C581.897 132.249 582.518 132.87 582.518 133.629C582.504 134.389 581.897 135.01 581.137 135.01Z" fill="#473BF0"/>
<path d="M569.527 135.01H564.074C563.315 135.01 562.694 134.389 562.694 133.629C562.694 132.87 563.315 132.249 564.074 132.249H569.527C570.286 132.249 570.908 132.87 570.908 133.629C570.908 134.389 570.3 135.01 569.527 135.01Z" fill="#473BF0"/>
<path d="M524.109 98.6895C523.35 98.6895 522.729 98.0683 522.729 97.309V91.235C522.729 90.4757 523.35 89.8545 524.109 89.8545C524.868 89.8545 525.49 90.4757 525.49 91.235V97.309C525.49 98.0683 524.868 98.6895 524.109 98.6895Z" fill="#473BF0"/>
<path d="M524.109 109.319C523.35 109.319 522.729 108.698 522.729 107.939V101.865C522.729 101.105 523.35 100.484 524.109 100.484C524.869 100.484 525.49 101.105 525.49 101.865V107.939C525.49 108.698 524.869 109.319 524.109 109.319Z" fill="#473BF0"/>
<path d="M532.64 100.967H527.188C526.428 100.967 525.807 100.346 525.807 99.5868C525.807 98.8275 526.428 98.2063 527.188 98.2063H532.64C533.4 98.2063 534.021 98.8275 534.021 99.5868C534.007 100.346 533.4 100.967 532.64 100.967Z" fill="#473BF0"/>
<path d="M521.045 100.967H515.592C514.833 100.967 514.211 100.346 514.211 99.5868C514.211 98.8275 514.833 98.2063 515.592 98.2063H521.045C521.804 98.2063 522.425 98.8275 522.425 99.5868C522.411 100.346 521.804 100.967 521.045 100.967Z" fill="#473BF0"/>
<path d="M110.383 53.1894C110.383 48.344 114.317 44.4097 119.163 44.4097C124.008 44.4097 127.942 48.344 127.942 53.1894C127.942 58.0349 124.008 61.9692 119.163 61.9692C114.331 61.9692 110.383 58.0349 110.383 53.1894ZM113.144 53.1894C113.144 56.5164 115.85 59.2221 119.177 59.2221C122.503 59.2221 125.209 56.5164 125.209 53.1894C125.209 49.8625 122.503 47.1568 119.177 47.1568C115.85 47.1568 113.144 49.8625 113.144 53.1894Z" fill="#473BF0"/>
<path d="M75.1118 86.6658C75.1118 81.8203 79.0461 77.886 83.8916 77.886C88.737 77.886 92.6714 81.8203 92.6714 86.6658C92.6714 91.5112 88.737 95.4455 83.8916 95.4455C79.06 95.4455 75.1118 91.5112 75.1118 86.6658ZM77.8728 86.6658C77.8728 89.9927 80.5785 92.6984 83.9054 92.6984C87.2323 92.6984 89.938 89.9927 89.938 86.6658C89.938 83.3388 87.2323 80.6331 83.9054 80.6331C80.5785 80.6331 77.8728 83.3388 77.8728 86.6658Z" fill="#FD7C78"/>
<path d="M56.8622 98.9935C57.6214 98.9935 58.2426 98.3722 58.2426 97.613V91.5389C58.2426 90.7797 57.6214 90.1584 56.8622 90.1584C56.1029 90.1584 55.4817 90.7797 55.4817 91.5389V97.613C55.4817 98.3722 56.1029 98.9935 56.8622 98.9935Z" fill="#473BF0"/>
<path d="M56.8622 109.623C57.6214 109.623 58.2426 109.002 58.2426 108.243V102.169C58.2426 101.409 57.6214 100.788 56.8622 100.788C56.1029 100.788 55.4817 101.409 55.4817 102.169V108.243C55.4817 109.002 56.1029 109.623 56.8622 109.623Z" fill="#473BF0"/>
<path d="M48.3309 101.271H53.7837C54.543 101.271 55.1642 100.65 55.1642 99.891C55.1642 99.1317 54.543 98.5105 53.7837 98.5105H48.3309C47.5716 98.5105 46.9504 99.1317 46.9504 99.891C46.9504 100.65 47.5716 101.271 48.3309 101.271Z" fill="#473BF0"/>
<path d="M59.9267 101.271H65.3796C66.1388 101.271 66.76 100.65 66.76 99.891C66.76 99.1317 66.1388 98.5105 65.3796 98.5105H59.9267C59.1675 98.5105 58.5463 99.1317 58.5463 99.891C58.5463 100.65 59.1675 101.271 59.9267 101.271Z" fill="#473BF0"/>
<path d="M88.5991 52.2923C89.3584 52.2923 89.9796 51.671 89.9796 50.9118V44.8377C89.9796 44.0785 89.3584 43.4573 88.5991 43.4573C87.8398 43.4573 87.2186 44.0785 87.2186 44.8377V50.9118C87.2186 51.671 87.8398 52.2923 88.5991 52.2923Z" fill="#473BF0"/>
<path d="M88.5992 62.9217C89.3585 62.9217 89.9797 62.3005 89.9797 61.5412V55.4671C89.9797 54.7079 89.3585 54.0867 88.5992 54.0867C87.84 54.0867 87.2188 54.7079 87.2188 55.4671V61.5412C87.2188 62.3005 87.84 62.9217 88.5992 62.9217Z" fill="#473BF0"/>
<path d="M80.0816 54.57H85.5345C86.2937 54.57 86.9149 53.9488 86.9149 53.1895C86.9149 52.4303 86.2937 51.8091 85.5345 51.8091H80.0816C79.3224 51.8091 78.7012 52.4303 78.7012 53.1895C78.7012 53.9488 79.3086 54.57 80.0816 54.57Z" fill="#473BF0"/>
<path d="M91.6775 54.57H97.1303C97.8896 54.57 98.5108 53.9488 98.5108 53.1895C98.5108 52.4303 97.8896 51.8091 97.1303 51.8091H91.6775C90.9182 51.8091 90.297 52.4303 90.297 53.1895C90.297 53.9488 90.9182 54.57 91.6775 54.57Z" fill="#473BF0"/>
<path d="M433.813 85.2302V110.645C433.813 113.999 431.093 116.732 427.725 116.732H381.576L367.647 121.73C366.211 122.241 364.844 120.832 365.397 119.424L370.67 105.813V85.2302C370.67 81.8757 373.39 79.1423 376.758 79.1423H427.725C431.093 79.1423 433.813 81.8757 433.813 85.2302Z" fill="#FD7C78"/>
<g opacity="0.5">
<path d="M424.094 92.4225H381.755C380.83 92.4225 380.071 91.6771 380.071 90.7384C380.071 89.8135 380.816 89.0542 381.755 89.0542H424.094C425.019 89.0542 425.778 89.7997 425.778 90.7384C425.765 91.6633 425.019 92.4225 424.094 92.4225Z" fill="#D64E5A"/>
<path d="M424.094 99.1867H381.755C380.83 99.1867 380.071 98.4412 380.071 97.5025C380.071 96.5776 380.816 95.8184 381.755 95.8184H424.094C425.019 95.8184 425.778 96.5638 425.778 97.5025C425.765 98.4274 425.019 99.1867 424.094 99.1867Z" fill="#D64E5A"/>
<path d="M424.094 105.951H381.755C380.83 105.951 380.071 105.206 380.071 104.267C380.071 103.342 380.816 102.583 381.755 102.583H424.094C425.019 102.583 425.778 103.328 425.778 104.267C425.765 105.192 425.019 105.951 424.094 105.951Z" fill="#D64E5A"/>
</g>
<path d="M257.72 21.9771C257.872 22.0185 258.024 22.0185 258.19 21.9771C259.874 21.5354 260.854 21.3559 260.854 21.3559C261.365 21.2593 261.696 20.7761 261.613 20.2653C261.517 19.7546 261.033 19.4232 260.523 19.5061C260.481 19.5199 259.474 19.6993 257.72 20.1549C257.223 20.2929 256.92 20.8037 257.044 21.3007C257.127 21.6458 257.389 21.8943 257.72 21.9771Z" fill="#CADFF5"/>
<path d="M203.247 64.9515C202.377 66.539 201.535 68.1956 200.748 69.8659C200.555 70.2801 200.1 70.4871 199.672 70.3767C199.616 70.3629 199.561 70.3353 199.506 70.3215C199.037 70.1006 198.843 69.5346 199.064 69.0791C199.865 67.3811 200.721 65.6969 201.618 64.068C201.867 63.6124 202.433 63.4468 202.888 63.6953C203.33 63.9161 203.496 64.4959 203.247 64.9515Z" fill="#CADFF5"/>
<path d="M198.54 74.9043C197.863 76.5885 197.215 78.3279 196.635 80.0811C196.483 80.5504 195.986 80.8127 195.517 80.6885C195.489 80.6885 195.475 80.6747 195.448 80.6747C194.951 80.509 194.688 79.9706 194.854 79.4875C195.461 77.7067 196.11 75.9259 196.801 74.2141C196.994 73.7309 197.546 73.4963 198.015 73.6895C198.498 73.8828 198.733 74.4212 198.54 74.9043Z" fill="#CADFF5"/>
<path d="M190.588 102.376C190.133 102.265 189.829 101.824 189.884 101.354C190.119 99.4906 190.409 97.627 190.726 95.8048C190.809 95.294 191.306 94.9489 191.817 95.0455C192.328 95.1422 192.673 95.6253 192.576 96.1361C192.259 97.9169 191.982 99.7667 191.748 101.603C191.679 102.114 191.209 102.472 190.699 102.417C190.671 102.39 190.63 102.376 190.588 102.376Z" fill="#CADFF5"/>
<path d="M194.357 84.1952C194.854 84.3333 195.144 84.8578 195.006 85.3548C194.771 86.1831 194.55 87.0114 194.343 87.8258C194.108 88.7784 193.874 89.7447 193.653 90.6972C193.542 91.208 193.032 91.5255 192.535 91.4013C192.521 91.4013 192.521 91.4013 192.507 91.4013C192.01 91.277 191.706 90.78 191.817 90.2831C192.038 89.3029 192.272 88.3228 192.521 87.3565C192.728 86.5282 192.962 85.6723 193.197 84.8302C193.335 84.3333 193.832 84.0434 194.329 84.1676C194.343 84.1814 194.343 84.1952 194.357 84.1952Z" fill="#CADFF5"/>
<path d="M206.036 60.2024C205.815 60.5475 205.401 60.7132 205.014 60.6166C204.918 60.589 204.835 60.5613 204.738 60.5061C204.296 60.23 204.172 59.6502 204.448 59.2085C205.442 57.6209 206.505 56.061 207.61 54.5563C207.913 54.1422 208.493 54.0455 208.921 54.3492C209.335 54.6529 209.432 55.2327 209.128 55.6607C208.065 57.124 207.016 58.6563 206.036 60.2024Z" fill="#CADFF5"/>
<path d="M252.916 23.5649C251.204 24.1447 249.465 24.8073 247.753 25.5114C247.56 25.5942 247.353 25.608 247.16 25.5528C246.884 25.4837 246.635 25.2905 246.525 25.0006C246.331 24.5174 246.552 23.979 247.035 23.772C248.789 23.0541 250.556 22.3777 252.309 21.7841C252.792 21.6184 253.33 21.8807 253.496 22.3639C253.675 22.8747 253.413 23.3992 252.916 23.5649Z" fill="#CADFF5"/>
<path d="M237.828 30.3156C237.607 30.4399 237.358 30.4675 237.138 30.4123C236.903 30.357 236.682 30.1914 236.544 29.9567C236.296 29.5012 236.447 28.9352 236.903 28.6867C238.532 27.7756 240.216 26.9059 241.9 26.0914C242.37 25.8705 242.922 26.0638 243.156 26.5332C243.377 27.0025 243.184 27.5547 242.715 27.7894C241.072 28.5624 239.429 29.4321 237.828 30.3156Z" fill="#CADFF5"/>
<path d="M220.047 43.2642C219.799 43.4851 219.481 43.568 219.178 43.4851C219.012 43.4437 218.846 43.3471 218.722 43.2228C218.363 42.8501 218.391 42.2565 218.763 41.8976C220.13 40.6276 221.552 39.3713 222.988 38.1841C223.388 37.8528 223.982 37.908 224.313 38.3084C224.644 38.7087 224.589 39.3023 224.189 39.6336C222.767 40.7932 221.373 42.0218 220.047 43.2642Z" fill="#CADFF5"/>
<path d="M228.537 36.2514C228.303 36.417 228.013 36.4722 227.75 36.4032C227.543 36.348 227.35 36.2238 227.226 36.0443C226.922 35.6302 227.019 35.0366 227.433 34.7329C228.938 33.6423 230.498 32.5655 232.085 31.5578C232.527 31.2817 233.107 31.4059 233.383 31.8477C233.659 32.2894 233.535 32.8692 233.093 33.1453C231.547 34.1393 230.014 35.1884 228.537 36.2514Z" fill="#CADFF5"/>
<path d="M212.496 51.2846C212.262 51.5745 211.889 51.685 211.544 51.6021C211.42 51.5745 211.281 51.5055 211.171 51.4089C210.771 51.0776 210.715 50.484 211.047 50.0836C212.234 48.6479 213.49 47.2261 214.774 45.8594C215.133 45.4867 215.727 45.4591 216.099 45.818C216.472 46.1769 216.5 46.7705 216.141 47.1432C214.898 48.4961 213.67 49.8766 212.496 51.2846Z" fill="#CADFF5"/>
<path d="M258.645 15.6269L256.754 0L306.451 7.59257L258.645 15.6269Z" fill="#FD7C78"/>
<path d="M306.451 7.59277L260.536 19.6028L260.412 19.6443L258.107 22.4604L258.645 15.6271L306.451 7.59277Z" fill="#D64E5A"/>
<path d="M258.107 22.4602L262.234 22.405L260.412 19.644L258.107 22.4602Z" fill="#B2304F"/>
<path d="M266.196 18.1257L260.412 19.6443L269.813 33.8907L306.451 7.59277L266.196 18.1257Z" fill="#FD7C78"/>
<path d="M153.15 461.573C135.563 443.696 99.5601 404.27 76.6719 359.667C42.9885 294.012 9.2085 299.879 2.58225 323.084C-12.4234 375.611 63.0191 432.127 110.148 461.573H153.15Z" fill="#473BF0"/>
<path d="M139.138 461.573C112.412 440.59 89.8139 416.763 74.1042 398.458C51.5198 372.146 37.9222 351.287 37.7841 351.067C37.301 350.321 36.2932 350.1 35.5478 350.597C34.7885 351.08 34.5814 352.088 35.0646 352.834C35.2026 353.041 48.8969 374.051 71.6056 400.529C86.7907 418.226 108.367 441.059 133.92 461.573H139.138Z" fill="#473BF0"/>
<path d="M150.237 439.789C142.341 424.024 127.363 390.99 121.799 357.334C113.503 307.044 90.0487 303.772 80.7858 317.632C55.3576 355.719 116.291 425.778 135.728 446.512L150.237 439.789Z" fill="#473BF0"/>
<path d="M144.715 442.357C129.875 421.539 118.928 398.941 111.929 382.307C102.625 360.233 98.0831 343.64 98.0417 343.474C97.876 342.88 97.2686 342.522 96.6612 342.687C96.0676 342.853 95.7087 343.46 95.8743 344.054C95.9157 344.22 100.499 360.923 109.845 383.135C116.857 399.783 127.805 422.395 142.645 443.296L144.715 442.357Z" fill="#161C2D"/>
<path d="M496.472 300.238C511.533 282.582 544.25 241.389 563.397 195.985C590.869 130.813 623.572 134.002 631.579 155.703C652.272 211.833 560.471 281.436 522.204 307.472L496.472 300.238Z" fill="#473BF0"/>
<path d="M505.528 302.792C532.033 279.614 553.913 252.902 568.629 232.885C588.315 206.118 599.814 185.204 599.938 184.996C600.352 184.251 601.291 183.975 602.05 184.389C602.81 184.803 603.086 185.742 602.672 186.487C602.561 186.694 590.979 207.76 571.183 234.693C556.633 254.475 535.153 280.746 509.103 303.813L505.528 302.792Z" fill="#473BF0"/>
<path d="M498.846 277.86C505.265 262.22 517.206 229.586 520.092 197.02C524.412 148.359 546.583 143.555 556.425 156.145C583.455 190.712 530.266 262.04 513.189 283.258L498.846 277.86Z" fill="#473BF0"/>
<path d="M504.313 279.903C516.999 258.934 525.834 236.557 531.328 220.171C538.631 198.414 541.779 182.222 541.806 182.07C541.917 181.49 542.483 181.103 543.062 181.228C543.642 181.338 544.029 181.904 543.918 182.484C543.891 182.65 540.716 198.939 533.372 220.833C527.864 237.247 519.029 259.638 506.356 280.69L504.313 279.903Z" fill="#161C2D"/>
<path d="M589.295 351.508C594.016 326.535 603.072 303.744 613.384 313.145C623.696 322.56 607.351 361.461 582.972 383.024L576.429 392.342C593.919 376.315 622.067 366.762 629.715 375.818C637.307 384.805 617.995 389.471 599.634 390.782C585.664 391.776 576.746 395.642 572.425 398.044L541.531 442.053C569.306 416.763 613.757 401.716 625.849 416.045C637.901 430.319 607.255 437.704 578.127 439.789C556.122 441.363 542.014 447.409 535.098 451.233L528.941 460.013C527.256 459.185 525.572 458.343 523.888 457.5L560.636 405.139C560.857 399.755 560.346 392.149 557.682 382.665C552.685 364.954 550.504 345.213 561.534 349.299C571.114 352.847 572.867 375.432 567.318 395.628L580.032 377.516C583 371.235 587.265 362.29 589.295 351.508Z" fill="#473BF0"/>
<path d="M102.57 151.769C100.071 131.089 93.9002 111.956 84.9686 119.093C76.0231 126.23 87.2601 158.933 106.021 177.887L110.866 185.866C97.4342 171.813 74.9326 162.453 68.1959 169.438C61.5006 176.382 77.0309 181.241 91.9675 183.312C103.343 184.886 110.411 188.53 113.82 190.739L136.681 228.412C115.353 206.214 79.8194 191.498 69.1484 202.542C58.5188 213.558 83.174 221.275 106.877 224.561C124.781 227.045 135.991 232.761 141.443 236.267L145.999 243.777C147.421 243.197 148.843 242.603 150.265 241.996L123.069 197.172C123.194 192.755 124.008 186.57 126.714 178.964C131.766 164.759 134.638 148.731 125.389 151.465C117.368 153.839 114.704 172.213 118.141 189.041L108.74 173.538C106.656 168.251 103.646 160.7 102.57 151.769Z" fill="#473BF0"/>
<path d="M310.896 453.497C311.144 449.48 311.365 445.656 311.572 442.109C312.428 427.627 312.967 417.729 312.967 417.729L307.293 417.481L304.09 417.343L265.52 415.631C265.52 415.631 264.816 426.689 263.988 442.937C263.822 446.264 263.643 449.798 263.463 453.511H310.896V453.497Z" fill="#161C2D"/>
<path d="M307.307 417.481L312.98 417.729C312.98 417.729 312.428 427.613 311.586 442.108C296.76 443.351 280.581 443.848 264.015 442.923C264.843 426.675 265.547 415.617 265.547 415.617L304.118 417.329L307.307 417.481Z" fill="#001336"/>
<path d="M305.277 453.497C306.175 438.022 306.906 424.77 307.307 417.481L304.104 417.343C303.704 424.659 302.972 437.967 302.075 453.497H305.277Z" fill="#001336"/>
<path d="M323.334 453.497H370.753C370.574 449.784 370.408 446.25 370.229 442.923C369.4 426.675 368.696 415.617 368.696 415.617L330.126 417.329L326.923 417.467L321.25 417.715C321.25 417.715 321.802 427.6 322.644 442.095C322.865 445.656 323.086 449.48 323.334 453.497Z" fill="#161C2D"/>
<path d="M326.923 417.481L321.25 417.729C321.25 417.729 321.802 427.613 322.644 442.108C337.47 443.351 353.649 443.848 370.215 442.923C369.387 426.675 368.682 415.617 368.682 415.617L330.112 417.329L326.923 417.481Z" fill="#001336"/>
<path d="M332.156 453.497C331.258 437.967 330.527 424.645 330.126 417.343L326.924 417.481C327.324 424.756 328.056 438.022 328.953 453.497H332.156Z" fill="#001336"/>
<path d="M374.176 410.261C374.176 414.817 374.163 418.434 374.135 420.877C363.34 423.79 352.558 425.888 341.763 427.186C341.473 427.227 341.183 427.255 340.893 427.296C340.41 427.352 339.941 427.407 339.458 427.462C339.333 427.476 339.223 427.49 339.099 427.503C337.221 427.71 335.358 427.89 333.494 428.042C329.601 428.359 323.955 428.635 320.062 428.746L317.039 410.786L314.016 428.746C311.779 428.704 307.886 428.635 305.664 428.539C304.849 428.497 304.035 428.456 303.22 428.401C302.503 428.359 301.757 428.318 301.025 428.263C300.694 428.249 300.363 428.221 300.032 428.194C299.41 428.152 298.803 428.097 298.182 428.056C284.543 426.951 270.918 424.563 257.292 420.877C257.223 415.507 257.154 404.574 257.14 390.465C257.14 389.692 257.14 388.905 257.14 388.119C257.127 372.561 257.182 353.469 257.361 333.811C257.375 332.251 257.403 330.705 257.417 329.145C257.43 327.047 257.458 324.921 257.486 322.795C257.499 322.367 257.499 321.939 257.499 321.511C257.513 320.655 257.513 319.799 257.541 318.943C257.555 317.701 257.582 316.459 257.596 315.216C257.637 312.4 257.679 309.584 257.72 306.782C258.369 267.756 259.694 231.877 262.207 222.739C262.441 221.897 262.69 221.275 262.925 220.916C263.187 220.516 263.518 220.102 263.891 219.674C264.36 219.136 264.899 218.597 265.506 218.031C269.689 214.18 276.936 209.721 284.294 205.469C285.15 204.972 286.006 204.489 286.862 203.992C286.986 203.923 306.837 197.228 306.975 197.145L327.738 198.594C330.236 200.058 349.88 206.739 352.282 208.244C353 208.685 353.704 209.141 354.394 209.583C360.04 213.227 364.845 216.844 366.943 219.922C369.966 224.368 371.788 264.222 372.851 307.582C372.879 308.576 372.906 309.584 372.934 310.578C373.044 315.161 373.141 319.772 373.238 324.382C373.334 328.938 373.417 333.48 373.486 337.98C373.61 345.352 373.707 352.627 373.804 359.612C373.818 360.413 373.818 361.2 373.831 361.986C373.914 368.806 373.983 375.349 374.025 381.451C374.038 382.252 374.038 383.039 374.038 383.825C374.107 392.992 374.149 401.109 374.149 407.625V407.638C374.176 408.55 374.176 409.419 374.176 410.261Z" fill="#473BF0"/>
<path d="M318.088 228.44L330.167 330.387L317.094 355.622L303.676 330.387L316.487 228.468L318.088 228.44Z" fill="#EDEDED"/>
<path d="M325.584 224.381L317.177 237.855L308.521 224.506L317.053 208.202L325.584 224.381Z" fill="white"/>
<path d="M305.126 195.543C305.126 195.543 297.657 195.46 295.131 201.493C295.131 201.493 294.372 219.964 308.522 224.505L317.053 208.202C317.053 208.202 306.423 204.917 305.126 195.543Z" fill="#473BF0"/>
<path d="M328.193 195.543C328.193 195.543 334.599 196.482 337.125 202.501C337.125 202.501 339.72 219.964 325.557 224.505L317.039 208.202C317.053 208.202 326.896 204.917 328.193 195.543Z" fill="#473BF0"/>
<path d="M320.062 366.128C320.062 367.798 318.709 369.151 317.039 369.151C315.368 369.151 314.016 367.798 314.016 366.128C314.016 364.457 315.368 363.104 317.039 363.104C318.709 363.104 320.062 364.457 320.062 366.128Z" fill="#473BF0"/>
<path d="M320.062 390.175C320.062 391.846 318.709 393.199 317.039 393.199C315.368 393.199 314.016 391.846 314.016 390.175C314.016 388.505 315.368 387.152 317.039 387.152C318.709 387.166 320.062 388.505 320.062 390.175Z" fill="#473BF0"/>
<path d="M345.255 285.232H344.027C337.318 285.232 331.893 279.793 331.893 273.098V257.499H357.404V273.098C357.404 279.793 351.965 285.232 345.255 285.232Z" fill="#473BF0"/>
<path d="M288.463 144.231C288.463 144.231 288.933 133.16 287.442 128.756C284.805 120.97 286.075 114.979 291.901 113.116C298.568 110.99 293.088 106.337 299.521 104.308C305.954 102.279 307.528 107.759 311.421 105.661C315.327 103.563 316.653 102.058 320.518 101.533C326.399 100.747 326.771 106.351 330.83 105.592C337.567 104.35 341.335 108.698 342.716 113.102C344.083 117.505 343.047 118.762 346.153 120.046C350.792 121.964 349.936 129.585 347.396 132.801C344.856 136.018 345.27 137.301 345.09 142.381C344.925 147.503 288.463 144.231 288.463 144.231Z" fill="#161C2D"/>
<path d="M342.219 154.115C342.219 154.115 347.092 147.613 350.709 152.997C354.325 158.367 349.204 174.243 340.341 170.364L342.219 154.115Z" fill="#FB9E82"/>
<path d="M342.288 165.449C342.619 165.449 342.923 165.228 343.006 164.897C344.386 159.996 349.452 158.008 349.508 157.995C349.894 157.843 350.087 157.415 349.936 157.028C349.784 156.642 349.356 156.448 348.969 156.586C348.735 156.683 343.144 158.85 341.556 164.483C341.446 164.883 341.68 165.297 342.081 165.408C342.15 165.449 342.219 165.449 342.288 165.449Z" fill="#FC7972"/>
<path d="M347.409 162.978C347.547 162.978 347.685 162.937 347.809 162.854C348.154 162.633 348.251 162.164 348.03 161.819C347.989 161.763 347.091 160.397 345.214 159.555C344.841 159.389 344.4 159.555 344.22 159.927C344.054 160.3 344.22 160.742 344.593 160.921C346.042 161.57 346.746 162.619 346.76 162.633C346.926 162.868 347.16 162.978 347.409 162.978Z" fill="#FC7972"/>
<path d="M292.011 154.115C292.011 154.115 287.138 147.613 283.521 152.997C279.905 158.367 285.026 174.243 293.889 170.364L292.011 154.115Z" fill="#FB9E82"/>
<path d="M291.942 165.449C291.611 165.449 291.307 165.228 291.224 164.897C289.844 159.996 284.778 158.008 284.722 157.995C284.336 157.843 284.143 157.415 284.294 157.028C284.446 156.642 284.874 156.448 285.261 156.586C285.495 156.683 291.086 158.85 292.674 164.483C292.784 164.883 292.55 165.297 292.149 165.408C292.08 165.449 292.011 165.449 291.942 165.449Z" fill="#FC7972"/>
<path d="M286.821 162.978C286.683 162.978 286.544 162.937 286.42 162.854C286.075 162.633 285.979 162.164 286.199 161.819C286.241 161.763 287.138 160.397 289.016 159.555C289.388 159.389 289.83 159.555 290.009 159.927C290.175 160.3 290.009 160.742 289.637 160.921C288.187 161.57 287.483 162.619 287.469 162.633C287.318 162.868 287.069 162.978 286.821 162.978Z" fill="#FC7972"/>
<path d="M305.125 183.809V199.588C305.125 199.588 309.833 207.622 316.197 208.175C322.561 208.727 328.207 201.258 328.207 201.258V184.928L305.125 183.809Z" fill="#FDBEAB"/>
<path d="M305.125 183.809V190.808C309.391 195.543 316.984 196.731 328.207 195.074V184.914L305.125 183.809Z" fill="#FB9E82"/>
<path d="M288.491 143.293C288.781 149.422 289.361 157.097 290.534 163.226V163.24C290.534 163.254 290.534 163.282 290.548 163.296C290.548 163.296 290.548 163.296 290.548 163.309C290.838 164.8 291.155 166.208 291.514 167.478C291.721 168.224 291.956 168.997 292.218 169.798C295.959 181.531 304.628 198.511 326.398 190.739C335.565 187.467 340.341 177.997 342.785 167.727C342.923 167.119 343.061 166.512 343.185 165.918C343.268 165.532 343.351 165.159 343.42 164.786L343.53 164.234C343.544 164.138 343.558 164.069 343.571 164.027C343.571 164 343.571 163.986 343.571 163.986C345.007 156.089 345.228 148.097 345.118 142.395C345.007 136.57 341.818 131.255 336.766 128.383C323.044 120.598 308.563 123.51 299.024 127.169C292.384 129.723 288.146 136.225 288.491 143.293Z" fill="#FDBEAB"/>
<path d="M290.534 163.227C290.534 163.227 290.534 163.227 290.534 163.24C290.534 163.254 290.534 163.282 290.548 163.296C290.548 163.296 290.548 163.296 290.548 163.309C290.686 163.82 291.459 166.636 292.218 169.798C295.959 181.532 304.629 198.511 326.399 190.739C335.565 187.468 340.341 177.998 342.785 167.727C342.923 167.119 343.061 166.512 343.185 165.918C343.268 165.532 343.351 165.159 343.42 164.786L343.53 164.234C343.544 164.138 343.558 164.069 343.572 164.027C343.572 164 343.572 163.986 343.572 163.986L340.369 163.337C339.762 166.374 338.395 169.232 336.738 171.772C334.033 165.283 320.283 169.59 320.283 169.59L320.214 169.618C319.372 169.88 318.516 170.018 317.647 170.018C316.763 170.018 315.88 169.88 315.01 169.604C315.01 169.604 301.426 165.104 298.61 171.288C295.794 166.926 293.889 162.978 293.889 162.978L290.534 163.227ZM317.605 172.545C333.149 170.446 330.706 178.812 330.706 178.812C328.98 180.386 327.406 181.532 326.343 182.125C322.948 184.016 319.607 184.734 317.191 184.624C314.803 184.527 314.154 185.01 308.121 181.752C307.058 181.186 305.982 180.33 304.919 179.323C304.643 177.68 302.02 169.867 317.605 172.545Z" fill="#161C2D"/>
<path d="M303.51 154.709C303.51 156.393 304.38 157.76 305.443 157.76C306.52 157.76 307.376 156.393 307.376 154.709C307.376 153.025 306.506 151.658 305.443 151.658C304.38 151.658 303.51 153.025 303.51 154.709Z" fill="#161C2D"/>
<path d="M327.752 154.709C327.752 156.393 328.621 157.76 329.684 157.76C330.761 157.76 331.617 156.393 331.617 154.709C331.617 153.025 330.747 151.658 329.684 151.658C328.621 151.658 327.752 153.025 327.752 154.709Z" fill="#161C2D"/>
<path d="M298.555 144.424C298.555 144.424 306.561 141.263 312.732 143.927L312.111 147.365C312.111 147.365 303.055 146.605 298.499 148.441C298.085 147.116 298.03 145.777 298.555 144.424Z" fill="#161C2D"/>
<path d="M336.642 144.438C336.642 144.438 328.566 141.249 322.354 143.928L322.975 147.379C322.975 147.379 332.1 146.606 336.697 148.469C337.111 147.144 337.166 145.805 336.642 144.438Z" fill="#161C2D"/>
<path d="M316.86 168.334C315.59 168.334 314.347 167.837 314.14 167.768C313.754 167.616 313.574 167.174 313.726 166.788C313.878 166.401 314.32 166.222 314.706 166.374C315.383 166.65 317.012 167.078 317.716 166.664C317.854 166.581 318.033 166.415 318.088 165.96C318.364 163.337 317.647 154.571 317.633 154.474C317.605 154.06 317.909 153.701 318.323 153.66C318.737 153.618 319.096 153.936 319.137 154.35C319.165 154.723 319.869 163.351 319.593 166.111C319.483 167.147 318.944 167.685 318.502 167.947C318.005 168.237 317.426 168.334 316.86 168.334Z" fill="#FB9E82"/>
<path d="M326.412 174.049C325.846 176.907 323.955 182.18 317.578 182.18C311.186 182.18 309.405 177.362 308.784 174.049H326.412Z" fill="white"/>
<path d="M288.491 143.293C288.781 149.422 289.374 157.097 290.534 163.226L293.888 162.992C293.888 162.992 293.074 157.815 292.701 154.447C292.329 151.078 291.693 144.77 294.565 143.983C297.436 143.21 295.752 136.004 299.742 132.898C303.731 129.778 312.677 128.908 318.571 132.539C324.466 136.156 331.106 132.263 333.812 132.898C336.531 133.519 340.217 137.274 339.223 140.766C338.215 144.259 341.211 146.385 341.943 150.015C342.674 153.632 340.341 163.378 340.341 163.378L343.544 164.027C344.98 156.131 345.2 148.138 345.09 142.437C344.98 136.611 341.804 131.296 336.738 128.425C323.016 120.639 308.535 123.538 298.996 127.21C292.384 129.723 288.146 136.225 288.491 143.293Z" fill="#161C2D"/>
<path d="M267.246 216.582C267.246 216.582 247.533 229.737 234.86 233.658L243.35 269.219C243.35 269.219 244.523 268.736 258.894 262.62L267.246 216.582Z" fill="#473BF0"/>
<path d="M363.906 216.582C363.906 216.582 401.593 235.894 414.266 239.815C409.42 248.553 406.328 256.684 402.2 268.404C402.2 268.404 384.089 263.614 369.718 257.499L363.906 216.582Z" fill="#473BF0"/>
<path d="M517.027 453.732C516.323 440.535 515.785 431.921 515.785 431.921L477.104 433.632L473.901 433.784L468.214 434.033C468.214 434.033 468.642 441.832 469.346 453.732H517.027Z" fill="#375BC7"/>
<path d="M517.027 453.732C516.323 440.535 515.785 431.921 515.785 431.921L477.104 433.632L473.901 433.784L468.214 434.033C468.214 434.033 468.642 441.832 469.346 453.732H517.027Z" fill="#161C2D"/>
<path d="M478.208 453.732C477.725 445.284 477.338 438.257 477.09 433.646L473.887 433.784C474.135 438.381 474.522 445.339 474.991 453.732H478.208Z" fill="#001336"/>
<path d="M457.156 453.732C457.86 441.832 458.288 434.033 458.288 434.033L452.117 433.757L448.915 433.605L410.717 431.907C410.717 431.907 410.303 438.519 409.723 449.025C409.64 450.515 409.558 452.089 409.475 453.718H457.156V453.732Z" fill="#161C2D"/>
<path d="M450.999 453.732C451.469 445.325 451.855 438.354 452.104 433.77L448.901 433.632C448.653 438.257 448.266 445.283 447.783 453.746H450.999V453.732Z" fill="#001336"/>
<path d="M433.012 150.388C433.012 167.823 443.738 179.833 461.173 179.833C478.609 179.833 490.757 166.926 490.757 149.491C490.757 144.687 489.97 140.2 488.465 136.224C488.383 135.99 488.286 135.755 488.189 135.52C488.01 135.065 487.816 134.623 487.609 134.181C487.306 133.505 486.961 132.856 486.616 132.207C482.074 124.035 473.943 118.844 463.01 118.844C442.095 118.844 433.012 132.953 433.012 150.388Z" fill="#161C2D"/>
<path d="M443.614 123.497C443.614 133.588 451.8 141.774 461.891 141.774C471.983 141.774 480.169 133.588 480.169 123.497C480.169 113.405 471.983 105.219 461.891 105.219C451.8 105.219 443.614 113.405 443.614 123.497Z" fill="#161C2D"/>
<path d="M436.933 157.898C436.933 157.898 432.087 151.437 428.484 156.78C424.881 162.122 429.975 177.887 438.796 174.036L436.933 157.898Z" fill="#FB9E82"/>
<path d="M436.864 169.163C436.533 169.163 436.243 168.942 436.146 168.624C434.78 163.751 429.741 161.777 429.686 161.764C429.299 161.612 429.106 161.184 429.258 160.797C429.41 160.411 429.837 160.217 430.224 160.369C430.459 160.452 436.022 162.619 437.596 168.224C437.706 168.624 437.471 169.025 437.085 169.149C437.002 169.149 436.933 169.163 436.864 169.163Z" fill="#FC7972"/>
<path d="M431.784 166.706C431.646 166.706 431.508 166.664 431.384 166.581C431.039 166.361 430.942 165.891 431.163 165.546C431.204 165.491 432.088 164.124 433.965 163.296C434.338 163.13 434.78 163.296 434.945 163.669C435.111 164.041 434.945 164.483 434.573 164.649C433.123 165.298 432.433 166.347 432.419 166.347C432.267 166.595 432.019 166.706 431.784 166.706Z" fill="#FC7972"/>
<path d="M486.836 157.898C486.836 157.898 491.682 151.437 495.285 156.78C498.888 162.122 493.794 177.887 484.973 174.036L486.836 157.898Z" fill="#FB9E82"/>
<path d="M486.905 169.163C487.237 169.163 487.527 168.942 487.623 168.624C488.99 163.751 494.029 161.777 494.084 161.764C494.47 161.612 494.664 161.184 494.512 160.797C494.36 160.411 493.932 160.217 493.546 160.369C493.311 160.452 487.748 162.619 486.174 168.224C486.063 168.624 486.298 169.025 486.685 169.149C486.767 169.149 486.836 169.163 486.905 169.163Z" fill="#FC7972"/>
<path d="M492 166.706C492.138 166.706 492.276 166.664 492.4 166.581C492.745 166.361 492.842 165.891 492.621 165.546C492.579 165.491 491.696 164.124 489.819 163.296C489.446 163.13 489.004 163.296 488.838 163.669C488.673 164.041 488.838 164.483 489.211 164.649C490.661 165.298 491.351 166.347 491.365 166.347C491.516 166.595 491.751 166.706 492 166.706Z" fill="#FC7972"/>
<path d="M473.805 187.412V203.094C473.805 203.094 469.126 211.087 462.803 211.626C456.48 212.178 450.876 204.751 450.876 204.751V188.517L473.805 187.412Z" fill="#FDBEAB"/>
<path d="M473.805 187.412V194.37C469.567 199.077 462.03 200.251 450.876 198.608V188.517L473.805 187.412Z" fill="#FB9E82"/>
<path d="M434.075 151.134C434.075 151.423 434.089 151.713 434.089 152.003C434.103 152.762 434.131 153.536 434.172 154.336C434.186 154.737 434.214 155.137 434.227 155.551C434.255 155.965 434.269 156.366 434.296 156.78C434.296 156.793 434.296 156.849 434.296 156.918C434.324 157.277 434.352 157.649 434.379 158.022C434.614 161.087 434.987 164.303 435.566 167.506C435.58 167.575 435.594 167.644 435.608 167.713C435.704 168.238 435.801 168.748 435.911 169.273C438.148 180.289 442.91 190.808 452.657 194.287C475.766 202.542 484.021 182.719 487.32 171.164C487.624 170.115 487.9 168.969 488.135 167.754C488.19 167.492 488.245 167.216 488.3 166.94C488.314 166.871 488.328 166.802 488.342 166.733C489.474 160.728 490.04 153.301 490.343 147.31C490.343 147.254 490.343 147.185 490.343 147.13C490.675 140.104 486.464 133.643 479.893 131.117C470.409 127.472 456.025 124.587 442.386 132.318C437.347 135.175 434.186 140.463 434.075 146.26C434.048 147.738 434.034 149.38 434.075 151.134Z" fill="#FDBEAB"/>
<path d="M435.58 167.506C435.594 167.575 435.608 167.644 435.621 167.713C437.734 179.281 442.469 190.643 452.67 194.287C475.779 202.542 484.034 182.719 487.334 171.164C487.693 169.88 488.024 168.445 488.314 166.926C488.328 166.857 488.342 166.788 488.355 166.719L485.87 166.54C485.87 166.54 483.924 170.584 481.039 175.029C478.167 168.707 464.28 173.304 464.28 173.304C463.41 173.58 462.499 173.732 461.588 173.732C460.705 173.732 459.835 173.594 458.979 173.331L458.91 173.318C458.91 173.318 444.871 168.914 442.096 175.54C440.398 172.945 439.017 170.032 438.396 166.926L435.58 167.506ZM461.629 176.327C477.56 173.594 474.868 181.573 474.592 183.243C473.515 184.279 472.411 185.134 471.32 185.728C465.15 189.069 464.487 188.558 462.057 188.668C459.586 188.793 456.177 188.061 452.712 186.128C451.621 185.521 450.02 184.348 448.253 182.732C448.239 182.732 445.74 174.187 461.629 176.327Z" fill="#161C2D"/>
<path d="M451.98 159.941C451.98 161.611 451.11 162.978 450.047 162.978C448.984 162.978 448.115 161.625 448.115 159.941C448.115 158.27 448.984 156.904 450.047 156.904C451.11 156.904 451.98 158.27 451.98 159.941Z" fill="#161C2D"/>
<path d="M474.688 159.872C474.688 161.542 473.832 162.909 472.756 162.909C471.693 162.909 470.823 161.556 470.823 159.872C470.823 158.201 471.693 156.835 472.756 156.835C473.832 156.849 474.688 158.201 474.688 159.872Z" fill="#161C2D"/>
<path d="M479.051 149.463C479.051 149.463 472.977 147.061 468.283 149.077L468.753 151.686C468.753 151.686 475.627 151.106 479.092 152.514C479.396 151.506 479.437 150.485 479.051 149.463Z" fill="#161C2D"/>
<path d="M443.614 149.463C443.614 149.463 449.688 147.061 454.381 149.077L453.912 151.686C453.912 151.686 447.037 151.106 443.572 152.514C443.269 151.506 443.227 150.485 443.614 149.463Z" fill="#161C2D"/>
<path d="M462.817 172.641C464.073 172.641 465.315 172.158 465.509 172.075C465.895 171.924 466.075 171.482 465.923 171.109C465.771 170.723 465.329 170.543 464.956 170.695C464.28 170.971 462.665 171.399 461.961 170.971C461.823 170.888 461.643 170.723 461.588 170.281C461.326 167.686 462.03 158.961 462.044 158.864C462.071 158.45 461.768 158.091 461.367 158.064C460.953 158.036 460.594 158.34 460.567 158.74C460.539 159.099 459.835 167.686 460.125 170.433C460.235 171.468 460.774 171.993 461.202 172.255C461.671 172.545 462.237 172.641 462.817 172.641Z" fill="#FB9E82"/>
<path d="M452.146 178.343C453.388 182.636 456.908 186.929 461.754 186.984C466.599 186.929 470.119 182.636 471.362 178.343H452.146Z" fill="white"/>
<path d="M434.075 151.134C434.075 151.423 434.089 151.713 434.089 152.003C434.102 152.762 434.144 153.549 434.171 154.336C434.185 154.737 434.213 155.137 434.227 155.551C434.254 155.965 434.268 156.366 434.296 156.78C434.296 156.793 434.296 156.849 434.296 156.918C434.323 157.277 434.351 157.649 434.379 158.022C434.613 161.087 434.986 164.303 435.566 167.506C435.58 167.575 435.593 167.644 435.607 167.713C435.704 168.238 435.8 168.748 435.911 169.273L438.478 167.354C438.313 165.697 437.001 154.806 437.208 153.784C437.94 150.181 442.247 146.33 441.253 142.865C440.259 139.386 438.782 134.899 441.488 134.278C444.18 133.657 455.306 133.546 462.223 133.781C469.097 134.002 478.981 132.677 482.943 135.783C486.919 138.875 475.516 145.101 484.31 147.793C487.099 148.649 486.132 163.157 485.76 166.553L488.148 167.754C488.203 167.492 488.258 167.216 488.313 166.94C488.327 166.871 488.341 166.802 488.355 166.733C489.487 160.728 490.053 153.301 490.356 147.31C490.356 147.254 490.356 147.185 490.356 147.13C490.688 140.104 486.477 133.643 479.906 131.117C470.423 127.472 456.038 124.587 442.399 132.318C437.36 135.175 434.199 140.463 434.089 146.26C434.047 147.738 434.033 149.38 434.075 151.134Z" fill="#161C2D"/>
<path d="M474.274 203.426C476.22 204.792 478.719 206.394 482.336 208.354C484.172 209.348 486.173 210.411 488.258 211.515C491.474 213.213 494.898 215.008 498.28 216.844C503.305 219.563 508.247 222.366 512.361 225.03C516.461 227.708 519.719 230.276 521.334 232.484C523.653 235.701 525.158 256.463 526.124 283.81C526.166 284.763 526.193 285.743 526.235 286.723C526.235 286.847 526.235 286.958 526.235 287.082C526.276 288.076 526.304 289.097 526.331 290.119C526.428 293.197 526.511 296.331 526.607 299.534C526.635 300.21 526.649 300.887 526.663 301.563C526.676 302.074 526.69 302.584 526.704 303.081C526.801 307.002 526.883 310.992 526.966 315.023C527.021 317.783 527.077 320.572 527.118 323.361C527.96 372.105 527.767 424.963 527.56 439.334C517.027 441.998 506.48 444 495.947 445.366C493.2 445.725 490.453 446.029 487.706 446.291C486.795 446.374 485.87 446.457 484.959 446.54C480.017 446.968 475.088 447.244 470.146 447.396C461.988 447.63 453.829 447.451 445.657 446.912C440.052 446.54 434.434 445.974 428.829 445.214C418.655 443.862 408.481 441.901 398.293 439.347C398.113 422.202 398.514 348.913 400.557 294.095C400.598 293.211 400.626 292.341 400.653 291.486C401.882 259.914 403.663 235.011 406.231 231.49C409.323 227.266 417.688 222.048 426.523 217.065C430.126 215.035 433.799 213.061 437.25 211.198C442.923 208.133 447.948 205.386 450.847 203.357C450.847 203.357 456.466 212.205 462.788 211.653C468.545 211.156 473.031 204.337 473.791 203.122L474.274 203.426Z" fill="#FD7C78"/>
<path d="M496.513 405.181C475.281 405.084 457.17 395.435 445.712 387.345C433.315 378.607 425.806 369.744 425.737 369.648C425.378 369.22 425.433 368.571 425.861 368.212C426.289 367.853 426.938 367.908 427.296 368.336C427.365 368.419 434.751 377.116 446.94 385.702C458.15 393.599 475.847 403.041 496.527 403.138C497.093 403.138 497.548 403.593 497.548 404.159C497.535 404.725 497.079 405.181 496.513 405.181Z" fill="#D64E5A"/>
<path d="M474.398 412.387C455.982 412.387 437.608 401.895 436.78 401.412C436.297 401.136 436.131 400.501 436.407 400.018C436.683 399.535 437.319 399.369 437.802 399.645C438.023 399.769 459.627 412.111 478.788 410.123C479.354 410.054 479.851 410.468 479.906 411.034C479.961 411.6 479.561 412.097 478.995 412.152C477.463 412.318 475.93 412.387 474.398 412.387Z" fill="#D64E5A"/>
<path d="M446.623 238.296C446.14 238.296 445.712 237.951 445.616 237.468C445.505 236.916 445.878 236.377 446.43 236.281C472.3 231.366 480.1 214.718 480.183 214.552C480.417 214.041 481.025 213.807 481.535 214.041C482.046 214.276 482.281 214.884 482.046 215.394C481.715 216.112 473.722 233.175 446.817 238.282C446.748 238.296 446.692 238.296 446.623 238.296Z" fill="#D64E5A"/>
<path d="M498.349 291.14H497.12C490.411 291.14 484.986 285.701 484.986 279.006V263.407H510.497V279.006C510.497 285.715 505.058 291.14 498.349 291.14Z" fill="#D64E5A"/>
<path d="M365.217 453.732C365.203 453.677 365.203 453.622 365.189 453.566C363.229 441.97 368.806 431.465 371.222 431.796C373.638 432.142 369.22 444.469 371.374 448.9C373.514 453.346 376.288 444.704 379.035 439.472C381.893 434.033 381.727 422.175 380.43 413.699C379.132 405.222 394.483 353.8 394.552 338.891L396.429 332.568L403.276 309.432L414.003 273.208C414.003 273.208 407.583 245.792 396.761 248.139C396.761 248.139 391.032 267.245 384.902 288.78C383.867 292.438 382.818 296.166 381.783 299.879C377.42 315.492 373.32 330.912 371.415 340.064C366.377 364.223 365.99 414.43 365.99 414.43C365.99 414.43 357.1 432.873 356.893 441.087C356.768 445.781 358.038 449.963 359.157 453.704H365.217V453.732Z" fill="#FDBEAB"/>
<path d="M381.755 299.907L396.415 332.596L403.262 309.459L384.875 288.808C383.853 292.452 382.804 296.179 381.755 299.907Z" fill="#FB9E82"/>
<path d="M381.037 290.161C387.47 301.191 394.013 312.165 400.529 323.154C402.669 315.962 404.905 309.059 406.99 302.723C406.99 302.709 407.004 302.695 407.004 302.681C407.832 300.141 408.646 297.698 409.433 295.365C409.447 295.324 409.461 295.282 409.475 295.241C409.751 294.412 410.013 293.612 410.275 292.825C413.381 283.424 415.797 275.942 416.487 271.579C418.351 259.846 413.989 239.028 407.542 233.106L406.81 232.54C406.396 232.291 406.231 231.919 405.761 232.402C403.566 234.666 398.238 242.286 395.49 249.244C395.132 250.127 394.773 251.052 394.4 251.991C390.41 262.248 385.537 275.569 381.037 290.161Z" fill="#FD7C78"/>
<path d="M399.549 329.642C401.675 320.876 404.34 311.116 406.99 302.723C406.99 302.709 407.004 302.695 407.004 302.681C407.818 300.086 408.633 297.615 409.434 295.365C409.447 295.323 409.461 295.282 409.475 295.241C409.723 294.523 409.972 293.833 410.22 293.17C410.262 293.046 410.276 292.935 410.276 292.825C410.276 292.424 410.027 292.052 409.627 291.9C409.102 291.72 408.536 291.983 408.343 292.494C405.637 299.879 402.435 310.522 399.687 320.945C399.632 323.816 399.591 326.729 399.549 329.642Z" fill="#D64E5A"/>
<path d="M517.966 292.811C517.966 292.935 517.993 293.046 518.035 293.17C518.283 293.833 518.532 294.523 518.78 295.241C518.794 295.282 518.808 295.323 518.821 295.365C519.622 297.629 520.437 300.086 521.251 302.681C521.251 302.695 521.265 302.709 521.265 302.737C523.28 309.17 525.323 316.403 527.118 323.375C527.077 320.586 527.021 317.797 526.966 315.037C524.633 306.616 522.107 298.485 519.912 292.493C519.733 291.969 519.153 291.707 518.628 291.9C518.214 292.024 517.966 292.411 517.966 292.811Z" fill="#D64E5A"/>
<path d="M566.31 315.699C560.636 303.592 521.693 233.161 521.693 233.161C514.349 237.537 526.773 306.809 526.773 306.809L542.221 346.249C545.755 355.567 556.785 359.474 565.427 354.504C565.578 354.421 565.716 354.338 565.868 354.242C580.777 345.407 566.31 315.699 566.31 315.699Z" fill="#FDBEAB"/>
<path d="M521.707 233.161L557.682 284.597C557.682 284.597 543.38 315.782 526.967 314.595C526.953 314.608 506.715 243.721 521.707 233.161Z" fill="#FD7C78"/>
<path d="M567.221 283.382L566.766 288.586L565.993 297.352L565.841 299.037L565.206 306.491L564.488 314.608L564.447 314.981L563.646 324.285L562.928 332.568L562.031 342.839H533.469L533.248 340.492L532.392 330.497L531.854 324.465L530.998 314.608L530.984 314.443L530.459 308.424L529.645 299.037L529.59 298.346L529.065 292.369L528.278 283.382H567.221Z" fill="#161C2D"/>
<path d="M565.84 299.037L565.205 306.491L564.488 314.609H530.997L530.984 314.443L530.459 308.424L529.645 299.037H565.84Z" fill="white"/>
<path d="M569.209 275.776H526.276V283.382H569.209V275.776Z" fill="#473BF0"/>
<path d="M565.979 275.776H529.521V271.358C529.521 270.226 530.432 269.315 531.564 269.315H563.949C565.081 269.315 565.992 270.226 565.992 271.358V275.776H565.979Z" fill="#161C2D"/>
<path d="M568.188 288.822C568.188 288.822 562.776 289.18 555.018 291.003C551.084 291.928 542.511 297.091 546.169 298.982C549.054 300.486 562.017 296.856 564.585 298.029C564.585 298.029 558.455 299.285 553.237 300.086C548.516 300.818 541.227 303.565 544.057 305.07C546.735 306.491 553.458 305.912 555.86 305.967C559.035 306.05 563.066 305.995 563.066 305.995C563.066 305.995 557.986 306.837 552.009 308.645C549.275 309.473 541.379 310.274 543.892 313.836C545.148 315.63 555.819 314.333 561.161 314.816C561.161 314.816 551.305 316.486 548.433 319.164C546.169 321.29 549.248 321.566 553.237 321.856C558.373 322.229 559.946 321.856 563.066 321.856C566.186 321.856 571.432 319.647 571.542 316.445C571.653 313.242 569.872 311.903 570.424 309.901C570.976 307.886 572.274 304.821 571.542 303.054C570.811 301.287 571.032 299.81 571.763 297.518C572.481 295.268 571.197 289.76 568.188 288.822Z" fill="#FDBEAB"/>
<path d="M465.081 161.059C465.081 155.938 469.25 151.769 474.371 151.769C479.493 151.769 483.662 155.938 483.662 161.059C483.662 166.181 479.493 170.35 474.371 170.35C469.25 170.336 465.081 166.181 465.081 161.059ZM466.53 161.059C466.53 165.38 470.05 168.9 474.371 168.9C478.692 168.9 482.212 165.38 482.212 161.059C482.212 156.738 478.692 153.218 474.371 153.218C470.05 153.218 466.53 156.724 466.53 161.059Z" fill="white"/>
<path d="M439.694 161.059C439.694 155.938 443.863 151.769 448.984 151.769C454.106 151.769 458.275 155.938 458.275 161.059C458.275 166.181 454.106 170.35 448.984 170.35C443.863 170.336 439.694 166.181 439.694 161.059ZM441.143 161.059C441.143 165.38 444.663 168.9 448.984 168.9C453.305 168.9 456.825 165.38 456.825 161.059C456.825 156.738 453.305 153.218 448.984 153.218C444.663 153.218 441.143 156.724 441.143 161.059Z" fill="white"/>
<path d="M490.991 154.032C490.991 153.632 490.674 153.301 490.274 153.301C485.235 153.259 481.756 156.655 481.577 156.821C481.3 157.097 481.287 157.566 481.577 157.842C481.715 157.98 481.908 158.049 482.087 158.049C482.267 158.049 482.46 157.98 482.598 157.842C482.64 157.801 485.801 154.736 490.246 154.75C490.66 154.764 490.991 154.433 490.991 154.032Z" fill="white"/>
<path d="M441.488 156.738C441.281 156.6 437.499 154.157 433.247 153.356C432.805 153.273 432.391 153.619 432.391 154.074C432.391 154.419 432.639 154.723 432.971 154.778C436.96 155.537 440.646 157.912 440.701 157.939C440.826 158.022 440.964 158.064 441.102 158.064C441.336 158.064 441.571 157.953 441.709 157.732C441.916 157.401 441.819 156.946 441.488 156.738Z" fill="white"/>
<path d="M457.763 158.961C457.777 158.933 459.503 156.614 461.767 156.614C464.003 156.614 465.563 158.933 465.577 158.961L466.792 158.174C466.709 158.05 464.804 155.178 461.767 155.178C458.757 155.178 456.687 158.008 456.59 158.132L457.763 158.961Z" fill="white"/>
<path d="M218.474 260.798L236.861 327.654L237.22 328.869C237.22 329.172 237.234 329.49 237.248 329.821C237.91 346.028 252.82 396.222 251.522 404.615C250.21 413.188 250.031 425.198 252.93 430.706C255.719 436.007 258.521 444.745 260.702 440.245C262.869 435.744 258.41 423.265 260.854 422.92C263.297 422.575 268.957 433.218 266.956 444.952C264.968 456.7 272.022 459.847 271.483 454.049C270.959 448.251 275.611 441.197 275.376 432.335C275.155 424.024 266.169 405.347 266.169 405.347C266.169 405.347 265.768 354.504 260.674 330.042C255.567 305.58 235.315 228.771 235.315 228.771C223.871 240.933 218.474 260.798 218.474 260.798Z" fill="#FDBEAB"/>
<path d="M236.861 327.681L237.206 328.855C237.206 329.145 237.22 329.448 237.22 329.78C240.782 328.565 244.192 327.529 246.704 327.046C247.27 326.936 247.643 326.397 247.546 325.831C247.436 325.252 246.897 324.879 246.331 325.003C243.777 325.486 240.382 326.48 236.861 327.681Z" fill="#FB9E82"/>
<path d="M242.204 453.456C241.5 448.914 240.809 444.345 240.133 439.817C239.691 436.78 239.249 433.77 238.822 430.816C237.193 419.455 235.743 408.729 234.583 399.811C234.142 396.429 233.741 393.295 233.382 390.506C232.25 381.616 231.588 376.081 231.588 376.081L181.629 377.972L131.518 376.081C131.518 376.081 130.22 387.014 128.163 402.862C127.791 405.747 127.376 408.784 126.962 411.959C125.844 420.283 124.574 429.463 123.207 438.864C123.194 439.002 123.166 439.14 123.152 439.278C122.724 442.205 122.296 445.159 121.841 448.113C121.841 448.155 121.827 448.196 121.827 448.224C121.565 449.963 121.302 451.703 121.04 453.428H242.204V453.456Z" fill="#161C2D"/>
<path d="M143.045 391.086C143.045 393.681 140.933 395.793 138.338 395.793C135.742 395.793 133.63 393.681 133.63 391.086C133.63 388.491 135.742 386.379 138.338 386.379C140.933 386.379 143.045 388.491 143.045 391.086Z" fill="#001336"/>
<path d="M154.724 409.336C154.724 411.931 152.611 414.043 150.016 414.043C147.421 414.043 145.309 411.931 145.309 409.336C145.309 406.741 147.421 404.628 150.016 404.628C152.611 404.628 154.724 406.741 154.724 409.336Z" fill="#001336"/>
<path d="M177.708 399.921C177.708 402.516 175.596 404.628 173.001 404.628C170.406 404.628 168.293 402.516 168.293 399.921C168.293 397.326 170.406 395.214 173.001 395.214C175.61 395.214 177.708 397.312 177.708 399.921Z" fill="#001336"/>
<path d="M141.429 428.704C141.429 431.299 139.317 433.411 136.722 433.411C134.127 433.411 132.015 431.299 132.015 428.704C132.015 426.109 134.127 423.997 136.722 423.997C139.317 423.997 141.429 426.109 141.429 428.704Z" fill="#001336"/>
<path d="M170.157 426.688C170.157 429.284 168.045 431.396 165.45 431.396C162.854 431.396 160.742 429.284 160.742 426.688C160.742 424.093 162.854 421.981 165.45 421.981C168.045 421.981 170.157 424.093 170.157 426.688Z" fill="#001336"/>
<path d="M131.228 407.279C131.228 409.736 129.364 411.752 126.962 411.973C127.39 408.797 127.791 405.747 128.163 402.875C129.958 403.538 131.228 405.25 131.228 407.279Z" fill="#001336"/>
<path d="M216.886 453.456C216.458 451.289 214.553 449.646 212.261 449.646C209.97 449.646 208.065 451.289 207.637 453.456H216.886Z" fill="#001336"/>
<path d="M210.039 433.411C212.639 433.411 214.746 431.304 214.746 428.704C214.746 426.104 212.639 423.997 210.039 423.997C207.439 423.997 205.331 426.104 205.331 428.704C205.331 431.304 207.439 433.411 210.039 433.411Z" fill="#001336"/>
<path d="M240.147 439.816C239.581 440.051 238.946 440.189 238.297 440.189C235.702 440.189 233.59 438.077 233.59 435.482C233.59 432.887 235.702 430.774 238.297 430.774C238.476 430.774 238.656 430.788 238.835 430.816C239.263 433.77 239.691 436.779 240.147 439.816Z" fill="#001336"/>
<path d="M125.913 443.585C125.913 445.974 124.132 447.948 121.813 448.251C121.827 448.21 121.827 448.168 121.827 448.141C122.283 445.187 122.711 442.232 123.138 439.306C124.767 440.038 125.913 441.68 125.913 443.585Z" fill="#001336"/>
<path d="M157.139 448.307C157.139 450.902 155.027 453.014 152.432 453.014C149.837 453.014 147.725 450.902 147.725 448.307C147.725 445.711 149.837 443.599 152.432 443.599C155.027 443.599 157.139 445.711 157.139 448.307Z" fill="#001336"/>
<path d="M182.43 443.599C182.43 446.195 180.318 448.307 177.722 448.307C175.127 448.307 173.015 446.195 173.015 443.599C173.015 441.004 175.127 438.892 177.722 438.892C180.318 438.892 182.43 441.004 182.43 443.599Z" fill="#001336"/>
<path d="M193.805 418.751C193.805 421.346 191.693 423.458 189.097 423.458C186.502 423.458 184.39 421.346 184.39 418.751C184.39 416.156 186.502 414.043 189.097 414.043C191.693 414.043 193.805 416.156 193.805 418.751Z" fill="#001336"/>
<path d="M234.597 399.797C234.266 399.88 233.935 399.907 233.59 399.907C230.981 399.907 228.882 397.795 228.882 395.2C228.882 392.674 230.884 390.589 233.396 390.492C233.755 393.295 234.156 396.415 234.597 399.797Z" fill="#001336"/>
<path d="M210.039 399.921C210.039 402.516 207.927 404.628 205.332 404.628C202.736 404.628 200.624 402.516 200.624 399.921C200.624 397.326 202.736 395.214 205.332 395.214C207.927 395.214 210.039 397.312 210.039 399.921Z" fill="#001336"/>
<path d="M227.281 416.694C227.281 419.289 225.169 421.401 222.574 421.401C219.978 421.401 217.866 419.289 217.866 416.694C217.866 414.099 219.978 411.987 222.574 411.987C225.183 411.987 227.281 414.099 227.281 416.694Z" fill="#001336"/>
<path d="M233.824 377.323C207.471 394.524 159.072 393.185 128.66 377.323C131.559 359.225 135.383 341.113 134.569 317.024C134.472 314.388 134.362 311.765 134.237 309.156C134.127 306.892 133.989 304.641 133.851 302.433C131.228 262.372 124.395 229.613 127.749 225.375C129.212 223.525 131.656 221.524 134.679 219.467C135.866 218.666 137.136 217.838 138.462 217.023C141.623 215.104 145.129 213.158 148.649 211.267C157.001 206.808 165.491 202.666 169.743 199.836C173.967 201.672 177.322 202.68 180.939 202.666C181.035 202.666 181.146 202.666 181.256 202.653C181.353 202.666 181.463 202.666 181.56 202.666C185.177 202.68 188.545 201.686 192.755 199.836C196.704 202.459 204.13 206.118 211.709 210.121C217.286 213.061 222.932 216.167 227.336 219.191C230.221 221.165 232.568 223.111 234.004 224.92C235.674 227.018 234.97 236.226 233.548 249.851C232.14 263.269 230.028 280.98 228.758 300.445C228.399 305.856 228.109 311.392 227.916 317.011C227.101 341.113 230.925 359.225 233.824 377.323Z" fill="#FD7C78"/>
<path d="M215.326 358.466C194.094 358.369 175.983 348.72 164.525 340.63C152.128 331.892 144.618 323.029 144.549 322.933C144.19 322.505 144.246 321.856 144.674 321.497C145.101 321.138 145.75 321.193 146.109 321.621C146.178 321.704 153.564 330.401 165.753 338.988C176.963 346.884 194.66 356.326 215.34 356.423C215.906 356.423 216.361 356.878 216.361 357.444C216.347 358.01 215.892 358.466 215.326 358.466Z" fill="#D64E5A"/>
<path d="M193.211 365.672C174.795 365.672 156.421 355.18 155.593 354.697C155.11 354.421 154.944 353.786 155.22 353.303C155.496 352.82 156.131 352.654 156.615 352.93C156.836 353.054 178.44 365.396 197.601 363.408C198.167 363.339 198.664 363.753 198.719 364.319C198.774 364.885 198.374 365.382 197.808 365.437C196.289 365.603 194.743 365.672 193.211 365.672Z" fill="#D64E5A"/>
<path d="M176.907 251.466C176.424 251.466 175.996 251.121 175.9 250.638C175.789 250.086 176.162 249.547 176.714 249.451C202.584 244.536 210.384 227.888 210.467 227.722C210.701 227.211 211.309 226.976 211.819 227.211C212.33 227.446 212.565 228.053 212.33 228.564C211.999 229.282 204.006 246.344 177.101 251.452C177.032 251.452 176.963 251.466 176.907 251.466Z" fill="#D64E5A"/>
<path d="M211.709 210.121C206.574 221.841 194.509 237.73 178.081 234.886C162.178 232.139 154.075 219.964 148.636 211.267C157.001 206.808 165.477 202.666 169.729 199.836C173.953 201.672 177.308 202.68 180.925 202.666C181.021 202.666 181.132 202.666 181.242 202.653C181.339 202.666 181.449 202.666 181.546 202.666C185.163 202.68 188.517 201.672 192.742 199.836C196.703 202.473 204.13 206.131 211.709 210.121Z" fill="#FDBEAB"/>
<path d="M181.56 203.08V203.094C181.463 203.094 181.353 203.094 181.256 203.08C181.353 203.094 181.463 203.08 181.56 203.08Z" fill="#161C2D"/>
<path d="M207.816 118.389C207.816 118.389 220.241 137.632 218.874 157.677C217.507 177.721 220.71 200.858 202.764 199.836C184.832 198.815 152.832 207.028 142.672 191.415C132.512 175.816 207.816 118.389 207.816 118.389Z" fill="#161C2D"/>
<path d="M155.151 153.646C155.151 153.646 150.196 147.047 146.524 152.5C142.838 157.953 148.042 174.077 157.057 170.143L155.151 153.646Z" fill="#FB9E82"/>
<path d="M155.083 165.159C154.751 165.159 154.448 164.938 154.351 164.607C152.957 159.637 147.794 157.608 147.752 157.594C147.366 157.442 147.159 157 147.311 156.614C147.462 156.227 147.904 156.02 148.291 156.172C148.525 156.269 154.213 158.464 155.828 164.206C155.938 164.607 155.704 165.035 155.303 165.145C155.221 165.145 155.152 165.159 155.083 165.159Z" fill="#FC7972"/>
<path d="M149.878 162.647C149.74 162.647 149.588 162.605 149.464 162.522C149.105 162.288 149.008 161.818 149.229 161.473C149.271 161.418 150.182 160.024 152.087 159.168C152.473 159.002 152.915 159.168 153.094 159.554C153.26 159.941 153.094 160.383 152.708 160.562C151.231 161.225 150.513 162.288 150.513 162.301C150.375 162.536 150.126 162.647 149.878 162.647Z" fill="#FC7972"/>
<path d="M206.16 153.646C206.16 153.646 211.116 147.047 214.788 152.5C218.473 157.953 213.269 174.077 204.255 170.143L206.16 153.646Z" fill="#FB9E82"/>
<path d="M206.229 165.159C206.56 165.159 206.864 164.938 206.96 164.607C208.354 159.637 213.517 157.608 213.559 157.594C213.945 157.442 214.152 157 214.001 156.614C213.849 156.227 213.407 156.02 213.02 156.172C212.786 156.269 207.098 158.464 205.483 164.206C205.373 164.607 205.607 165.035 206.008 165.145C206.09 165.145 206.16 165.159 206.229 165.159Z" fill="#FC7972"/>
<path d="M211.433 162.647C211.571 162.647 211.723 162.605 211.847 162.522C212.206 162.288 212.303 161.818 212.082 161.473C212.041 161.418 211.129 160.024 209.224 159.168C208.838 159.002 208.396 159.168 208.217 159.554C208.051 159.941 208.217 160.383 208.603 160.562C210.08 161.225 210.798 162.288 210.798 162.301C210.936 162.536 211.185 162.647 211.433 162.647Z" fill="#FC7972"/>
<path d="M192.838 183.809V199.837C192.838 199.837 188.062 207.995 181.587 208.561C175.127 209.127 169.384 201.535 169.384 201.535V184.941L192.838 183.809Z" fill="#FDBEAB"/>
<path d="M192.838 183.809V190.919C188.503 195.737 180.8 197.435 169.398 195.75V184.928L192.838 183.809Z" fill="#FB9E82"/>
<path d="M209.749 142.644C209.445 148.869 208.852 156.669 207.665 162.895C207.361 164.455 207.03 165.904 206.657 167.216C203.289 179.033 194.84 199.284 171.22 190.849C160.784 187.122 155.952 175.499 153.799 163.682C152.336 155.661 152.115 147.544 152.225 141.746C152.336 135.824 155.566 130.426 160.715 127.5C174.658 119.59 189.373 122.544 199.064 126.271C205.787 128.853 210.094 135.465 209.749 142.644Z" fill="#FDBEAB"/>
<path d="M170.254 154.585C170.254 156.297 169.37 157.677 168.28 157.677C167.189 157.677 166.306 156.297 166.306 154.585C166.306 152.873 167.189 151.493 168.28 151.493C169.37 151.479 170.254 152.873 170.254 154.585Z" fill="#161C2D"/>
<path d="M194.578 154.585C194.578 156.297 193.694 157.677 192.604 157.677C191.513 157.677 190.63 156.297 190.63 154.585C190.63 152.873 191.513 151.493 192.604 151.493C193.694 151.479 194.578 152.873 194.578 154.585Z" fill="#161C2D"/>
<path d="M164.387 145.363C166.03 144.908 169.329 144.107 172.808 144.107C173.719 144.107 174.423 144.921 174.271 145.819V145.846C174.147 146.564 173.498 147.075 172.766 147.047C170.392 146.937 164.166 147.268 161.226 148.455C161.171 147.945 161.474 147.379 161.902 146.882C162.537 146.122 163.421 145.625 164.387 145.363Z" fill="#161C2D"/>
<path d="M196.207 145.419C194.564 144.963 191.265 144.162 187.786 144.162C186.875 144.162 186.171 144.977 186.323 145.874V145.902C186.447 146.62 187.096 147.13 187.827 147.103C190.202 146.992 196.428 147.324 199.368 148.511C199.423 148 199.12 147.434 198.692 146.937C198.057 146.192 197.173 145.695 196.207 145.419Z" fill="#161C2D"/>
<path d="M180.925 168.721C180.345 168.721 179.752 168.624 179.268 168.32C178.827 168.058 178.274 167.52 178.164 166.457C177.874 163.654 178.592 154.888 178.62 154.516C178.647 154.102 179.02 153.784 179.448 153.825C179.862 153.867 180.18 154.226 180.138 154.654C180.124 154.737 179.406 163.654 179.683 166.319C179.724 166.788 179.917 166.94 180.055 167.023C180.773 167.451 182.416 167.009 183.106 166.733C183.493 166.567 183.934 166.76 184.1 167.147C184.252 167.533 184.072 167.975 183.686 168.141C183.479 168.224 182.209 168.721 180.925 168.721Z" fill="#FB9E82"/>
<path d="M171.248 173.525C171.828 176.424 173.733 181.752 180.179 181.752C186.64 181.752 188.448 176.879 189.083 173.525H171.248Z" fill="white"/>
<path d="M180.097 186.197C178.233 186.197 176.59 185.19 176.521 185.148C176.162 184.927 176.052 184.458 176.273 184.099C176.494 183.74 176.963 183.63 177.322 183.851C177.336 183.864 178.675 184.665 180.097 184.665C181.629 184.665 183.009 183.851 183.023 183.837C183.382 183.616 183.851 183.74 184.072 184.099C184.293 184.458 184.169 184.927 183.81 185.148C183.741 185.203 182.071 186.197 180.097 186.197Z" fill="#FB9E82"/>
<path d="M212.814 141.401C212.565 142.091 211.889 142.533 210.978 142.809C211.047 144.493 210.867 146.509 210.702 148.442C209.763 159.444 206.988 161.377 206.353 158.657C205.939 156.849 205.967 146.481 206.16 143.099C203.979 142.961 202.129 142.588 202.129 142.588L199.575 131.904L198.678 142.464C194.854 143.803 185.908 141.664 185.908 141.664L182.913 131.131L181.063 141.263C175.32 144.066 168.142 142.202 168.142 142.202L166.499 131.269L162.689 142.202C162.689 142.202 150.43 146.592 150.306 142.202C150.223 139.648 152.101 132.442 153.674 126.865C155.4 120.777 159.403 115.642 164.801 112.743C180 104.584 196.069 108.919 201.59 112.218C213.297 119.19 212.814 141.401 212.814 141.401Z" fill="#161C2D"/>
<path d="M157.402 119.203C157.402 119.203 146.965 131.2 143.638 152.638C140.325 174.063 135.728 189.897 148.636 196.979C162.606 204.64 165.298 191.595 165.105 187.329C164.898 183.064 149.119 168.721 157.043 135.866C159.61 125.25 157.402 119.203 157.402 119.203Z" fill="#161C2D"/>
<path d="M209.928 170.501C209.928 171.481 209.128 172.282 208.148 172.282C207.167 172.282 206.367 171.481 206.367 170.501C206.367 169.521 207.167 168.72 208.148 168.72C209.128 168.72 209.928 169.521 209.928 170.501Z" fill="white"/>
<path d="M133.837 302.433C131.214 262.371 124.381 229.613 127.735 225.375C129.199 223.525 131.642 221.523 134.665 219.467C137.744 233.892 145.502 277.267 133.837 302.433Z" fill="#FDBEAB"/>
<path d="M233.548 249.864C232.14 263.283 230.028 280.994 228.758 300.459C218.418 275.348 224.272 233.768 227.336 219.19C230.221 221.164 232.568 223.111 234.004 224.919C235.674 227.031 234.97 236.225 233.548 249.864Z" fill="#FDBEAB"/>
<path d="M139.566 268.045L127.943 305.387L115.215 340.879C113.172 348.305 104.958 352.129 97.9588 348.94C97.8346 348.885 97.7103 348.83 97.5861 348.775C85.4794 343.046 92.1609 319.302 92.1609 319.302L94.4524 319.122C95.3911 316.513 97.9036 309.887 101.092 301.549C101.479 300.527 101.879 299.465 102.293 298.402C102.97 296.635 103.674 294.799 104.392 292.921C105.413 290.271 106.476 287.537 107.539 284.79C115.38 264.442 121.882 242.341 121.882 242.341L127.294 226.258L139.566 268.045Z" fill="#FDBEAB"/>
<path d="M106.904 326.908C106.849 326.908 106.807 326.908 106.752 326.922C106.283 326.922 105.883 326.591 105.8 326.121C104.033 314.87 102.252 306.546 101.065 301.563C101.451 300.541 101.865 299.492 102.266 298.415C103.37 302.805 105.537 312.179 107.691 325.818C107.788 326.342 107.429 326.825 106.904 326.908Z" fill="#FB9E82"/>
<path d="M105.179 327.46C105.179 327.46 103.508 300.403 97.738 294.661C91.9676 288.904 86.6942 286.709 81.2828 286.902C75.8714 287.096 70.7775 287.772 71.1088 289.995C71.1088 289.995 58.6708 288.117 53.1213 291.334C47.5718 294.55 69.5626 297.38 76.0923 297.546C82.6219 297.711 86.073 301.37 86.3353 305.263C86.5976 309.155 90.3663 334.929 90.3663 334.929L105.179 327.46Z" fill="#FDBEAB"/>
<path d="M111.763 291.748L29.3494 292.3C26.2434 292.327 23.7171 289.829 23.7033 286.723V286.668C23.6895 283.561 26.1743 281.035 29.2804 281.021L111.694 280.469C114.8 280.442 117.327 282.94 117.34 286.046V286.102C117.354 289.194 114.856 291.734 111.763 291.748Z" fill="#001336"/>
<path d="M23.7447 292.341L5.70197 226.534C4.69422 222.835 7.45516 219.19 11.2929 219.163L50.0288 218.9C52.6379 218.887 54.9432 220.612 55.6749 223.111L75.5122 291.982L23.7447 292.341Z" fill="#161C2D"/>
<path d="M55.6611 223.125L75.3466 291.43L79.7779 291.403L60.0924 223.097C59.3608 220.585 57.0554 218.859 54.4463 218.873L50.015 218.901C52.6379 218.887 54.9433 220.612 55.6611 223.125Z" fill="#001336"/>
<path d="M45.9427 258.506C46.9781 262.855 44.2862 266.389 39.9515 266.416C35.603 266.444 31.2408 262.951 30.2054 258.603C29.1701 254.268 31.862 250.72 36.1966 250.693C40.5451 250.679 44.9074 254.171 45.9427 258.506Z" fill="#473BF0"/>
<path d="M587.569 463.437V464.389C587.569 469.897 583.096 474.37 577.588 474.37H59.6369C54.115 474.37 49.6561 469.897 49.6561 464.389V463.437C49.6561 457.928 54.1288 453.456 59.6369 453.456H577.588C583.096 453.456 587.569 457.915 587.569 463.437Z" fill="#473BF0"/>
<path d="M587.569 463.437V463.92H49.6561V463.437C49.6561 457.928 54.1288 453.456 59.6369 453.456H577.588C583.096 453.456 587.569 457.915 587.569 463.437Z" fill="#473BF0"/>
</svg>
