<svg width="203" height="132" viewBox="0 0 203 132" fill="none" xmlns="http://www.w3.org/2000/svg">
<path d="M202.926 61.8691C202.926 72.743 194.558 81.7833 183.712 82.6223C183.539 82.6334 183.356 82.6501 183.178 82.6556V62.9026C183.178 62.5025 183 62.1247 182.689 61.8746C182.673 61.8579 182.65 61.8413 182.628 61.8246C182.612 61.8079 182.589 61.7968 182.567 61.7802C182.184 61.5357 181.706 61.5023 181.295 61.6857L181.072 61.2023C181.317 61.0912 181.578 61.0356 181.845 61.0356L166.648 47.9391C166.765 47.8058 166.887 47.678 167.009 47.5446C174.921 39.2044 188.096 38.8599 196.436 46.7667C200.581 50.7007 202.926 56.1571 202.926 61.8691Z" fill="#FFE1FB"/>
<path d="M5.26727 76.06C4.9839 74.5987 5.93405 73.1874 7.38983 72.904C7.54541 72.8762 7.70098 72.8595 7.86212 72.854L19.8584 58.574L22.8533 62.4023L10.6292 75.6933C10.557 77.188 9.28457 78.3382 7.78989 78.2604C6.54525 78.1992 5.50064 77.288 5.26727 76.06Z" fill="#FFE1FB"/>
<path d="M62.2375 58.4797C62.1542 58.6019 62.0819 58.7297 62.0153 58.8631L48.9188 60.7356L46.9296 58.2074L42.7234 60.7133L46.674 66.8754L62.6487 62.1636C63.7933 63.2026 65.5658 63.1137 66.6049 61.9691C67.6439 60.8245 67.555 59.052 66.4104 58.0129C65.2658 56.9739 63.4933 57.0628 62.4542 58.2074C62.3764 58.2963 62.3042 58.3852 62.2375 58.4797Z" fill="#FFE1FB"/>
<path d="M39.8618 106.198L42.1788 108.504L52.1859 100.664L48.7632 97.2578L39.8618 106.198Z" fill="#FFE1FB"/>
<path d="M44.5071 115.111L37.2227 107.854L40.0231 105.037L44.496 109.488C46.0518 111.038 46.0574 113.555 44.5071 115.111Z" fill="#230344"/>
<path d="M27.5377 128.335H30.8048L32.3606 115.716H27.5321L27.5377 128.335Z" fill="#FFE1FB"/>
<path d="M37.1167 131.374H26.8373V127.402H33.1438C35.3386 127.402 37.1167 129.18 37.1167 131.374Z" fill="#230344"/>
<path d="M26.8265 118.589L23.0981 91.1125C22.5147 86.9618 22.6981 82.7334 23.6316 78.6494C24.3983 75.3656 25.4318 73.0875 26.7043 71.8873C26.9043 71.6984 27.1599 71.5817 27.4377 71.5539L39.7396 70.2704C40.223 70.2204 40.6898 70.4537 40.9454 70.8705L41.351 71.5428C41.401 71.6261 41.4399 71.7095 41.4677 71.7984L44.0681 79.8607C44.1459 80.1052 44.3181 80.3108 44.5515 80.4275C48.6465 82.5167 61.9486 89.5734 61.1874 92.6183C60.4706 95.4798 53.7751 100.119 51.7415 101.47C51.3192 101.753 50.7635 101.747 50.3413 101.459L46.963 99.1471C46.3906 98.7581 46.2462 97.9747 46.6351 97.4079C46.7129 97.2912 46.8129 97.1912 46.9241 97.1079L49.2522 95.3909C49.6856 95.0742 49.7801 94.463 49.4578 94.0296C49.3411 93.874 49.18 93.7518 48.9966 93.6907L36.4836 89.3011C35.9779 89.1233 35.4223 89.39 35.2445 89.8956C35.2167 89.9734 35.2 90.0568 35.1945 90.1401L32.8886 118.339C32.8385 118.961 32.3329 119.456 31.705 119.489L28.1378 119.667C28.1156 119.667 28.0934 119.667 28.0711 119.667C27.4433 119.667 26.9154 119.206 26.8321 118.583L26.8265 118.589Z" fill="#230344"/>
<path d="M32.4718 47.5168C36.0898 47.5168 39.0228 44.5838 39.0228 40.9657C39.0228 37.3477 36.0898 34.4147 32.4718 34.4147C28.8538 34.4147 25.9208 37.3477 25.9208 40.9657C25.9208 44.5838 28.8538 47.5168 32.4718 47.5168Z" fill="#FFE1FB"/>
<path d="M21.3311 64.6195L17.3138 60.0022C16.9138 59.5465 16.9027 58.8631 17.2861 58.3908L21.4867 53.2011L24.7094 54.079L26.4208 60.0633L23.3037 64.514C23.0814 64.8307 22.7314 65.0252 22.3424 65.0474C22.3202 65.0474 22.298 65.0474 22.2757 65.0474C21.9146 65.0474 21.5701 64.8918 21.3311 64.6195Z" fill="url(#paint0_linear_161_237)"/>
<path d="M43.551 63.658C43.1676 63.6414 42.8119 63.4413 42.5897 63.1246L39.4725 58.6739L40.9728 52.3785L43.9399 51.5673L44.4955 51.834L48.6073 57.0014C48.9907 57.4737 48.9796 58.1516 48.5795 58.6128L44.5622 63.2302C44.3233 63.5024 43.9788 63.6636 43.6176 63.6636C43.5954 63.658 43.5732 63.658 43.551 63.658Z" fill="url(#paint1_linear_161_237)"/>
<path d="M183.178 61.5913C183.178 61.658 183.156 61.7247 183.112 61.7747C183.017 61.8858 182.851 61.9025 182.734 61.8024L181.839 61.0301L166.648 47.9392L124.019 11.2113C123.519 10.7779 122.775 10.7834 122.275 11.2113L64.8712 61.0857L64.3544 61.5357C64.3322 61.5524 64.31 61.5691 64.2878 61.5802C64.2433 61.5969 64.1989 61.608 64.1489 61.6024C64.0822 61.5969 64.0211 61.5635 63.9766 61.5135C63.8822 61.4024 63.8877 61.2357 63.9988 61.1357L64.0711 61.0746L121.924 10.8112C122.625 10.2055 123.664 10.2055 124.369 10.8056L167.009 47.5447L183.084 61.3968C183.14 61.4468 183.173 61.5191 183.178 61.5913Z" fill="#3F3D56"/>
<path d="M150.768 69.4702L150.068 67.5366L147.651 60.8633L142.444 46.5L136.621 30.4531L126.119 1.49301C125.692 0.315047 124.391 -0.290603 123.213 0.137241L62.5096 22.1462C61.3316 22.5741 60.726 23.8743 61.1538 25.0522L76.0395 66.1086L76.2951 66.8087L91.9197 73.8876L96.3093 75.8768L97.0205 76.199L115.618 84.6281L116.34 84.367L128.537 79.9441L146.934 73.2708L149.412 72.3707C150.584 71.9539 151.19 70.6537 150.768 69.4702Z" fill="#FFE1FB"/>
<path d="M125.314 35.2761C124.686 33.5481 122.769 32.6535 121.041 33.2758L97.0206 41.9883L85.4244 46.1945C83.6908 46.8224 82.7962 48.7338 83.424 50.4674C84.0519 52.201 85.9633 53.0956 87.6969 52.4677L97.0206 49.0894L123.314 39.5546C125.047 38.9212 125.942 37.0097 125.314 35.2761Z" fill="white"/>
<path d="M129.542 46.9445C128.915 45.2165 126.998 44.3219 125.27 44.9442L121.202 46.4222L97.0207 55.1903L89.6529 57.8629C87.9193 58.4908 87.0247 60.4022 87.6526 62.1358C88.2804 63.8694 90.1918 64.764 91.9254 64.1361L97.0207 62.2858L127.548 51.2174C127.62 51.1952 127.681 51.1674 127.748 51.1341C129.353 50.4229 130.142 48.5948 129.542 46.9445Z" fill="white"/>
<path d="M133.815 58.7296C133.187 57.0016 131.276 56.107 129.542 56.7293L118.129 60.8689L109.295 64.0749L97.015 68.5256L93.9201 69.648C92.4476 70.187 91.5419 71.6761 91.7531 73.2263C91.7809 73.4486 91.8364 73.6708 91.9142 73.8875L96.3038 75.8767L97.015 75.6211H97.0206L119.302 67.5421L131.815 63.0081C133.548 62.3802 134.443 60.4688 133.815 58.7296Z" fill="white"/>
<path d="M108.805 23.8076C108.178 22.0795 106.261 21.185 104.533 21.8073L90.736 26.808C89.0024 27.4359 88.1078 29.3473 88.7357 31.0809C89.3636 32.8145 91.275 33.7091 93.0086 33.0812L97.3759 31.4977L100.265 30.4475L106.805 28.0749C108.539 27.4526 109.433 25.5412 108.805 23.8076Z" fill="white"/>
<path d="M163.859 30.453H99.2876C98.5152 30.453 97.7929 30.8475 97.3762 31.5032C97.1428 31.8643 97.015 32.2922 97.015 32.72V76.199L115.612 84.6225L118.235 85.8116L122.375 87.6897C122.863 87.9119 123.425 87.9119 123.919 87.6897L128.059 85.8116L141.011 79.944L153.085 74.4709L166.131 68.5589V32.72C166.126 31.4698 165.109 30.4586 163.859 30.453Z" fill="#FFE1FB"/>
<path d="M150.518 60.8745H112.628C110.839 60.8745 109.367 62.2913 109.3 64.0805C109.295 64.125 109.295 64.1694 109.295 64.2139C109.295 66.053 110.789 67.5477 112.628 67.5477H150.518C152.362 67.5477 153.851 66.053 153.851 64.2139C153.851 62.3747 152.357 60.8745 150.518 60.8745Z" fill="white"/>
<path d="M152.673 74.0709C152.073 73.5542 151.307 73.2764 150.512 73.2764H112.623C110.778 73.2764 109.289 74.771 109.289 76.6102C109.289 78.4494 110.784 79.9441 112.623 79.9441H141.005L153.079 74.471C152.957 74.3321 152.818 74.1932 152.673 74.0709Z" fill="white"/>
<path d="M118.235 85.8227L122.374 87.7008C122.863 87.923 123.425 87.923 123.919 87.7008L128.059 85.8227H118.235Z" fill="white"/>
<path d="M142.044 46.65C141.561 45.3331 140.311 44.4608 138.91 44.4608H124.236C122.93 44.4608 121.741 45.2275 121.202 46.4222C121.002 46.8556 120.902 47.3223 120.902 47.8002C120.902 49.6393 122.397 51.134 124.236 51.134H138.91C140.75 51.134 142.244 49.6393 142.244 47.8002C142.25 47.4057 142.178 47.0167 142.044 46.65Z" fill="white"/>
<path d="M139.71 79.9497L126.758 85.8172L123.691 87.2063C123.341 87.3619 122.941 87.3619 122.591 87.2063L119.524 85.8172H118.229L122.369 87.6953C122.858 87.9176 123.419 87.9176 123.914 87.6953L128.053 85.8172L141.005 79.9497H139.71ZM139.71 79.9497L126.758 85.8172L123.691 87.2063C123.341 87.3619 122.941 87.3619 122.591 87.2063L119.524 85.8172H118.229L122.369 87.6953C122.858 87.9176 123.419 87.9176 123.914 87.6953L128.053 85.8172L141.005 79.9497H139.71ZM139.71 79.9497L126.758 85.8172L123.691 87.2063C123.341 87.3619 122.941 87.3619 122.591 87.2063L119.524 85.8172H118.229L122.369 87.6953C122.858 87.9176 123.419 87.9176 123.914 87.6953L128.053 85.8172L141.005 79.9497H139.71ZM183.178 61.5913C183.078 61.4912 182.973 61.4079 182.856 61.3301C182.323 60.9856 181.65 60.9356 181.072 61.1968L152.674 74.0654L139.71 79.9497L126.758 85.8172L123.691 87.2063C123.341 87.3619 122.941 87.3619 122.591 87.2063L119.524 85.8172L116.329 84.367L97.0205 75.6157H97.0149L91.753 73.2264L76.0339 66.1031L65.21 61.1968C65.0988 61.1467 64.9822 61.1078 64.8655 61.0801C64.6043 61.0134 64.3321 61.0078 64.0654 61.0634C63.193 61.2412 62.5707 62.008 62.5707 62.8915V129.896C62.5707 130.93 63.4097 131.763 64.4376 131.763H181.845C182.878 131.763 183.712 130.924 183.712 129.896V62.9026C183.712 62.4136 183.523 61.9413 183.178 61.5913ZM183.178 129.907C183.178 130.646 182.578 131.241 181.845 131.241H64.4432C63.7042 131.241 63.1097 130.641 63.1097 129.907V62.9026C63.1097 62.4469 63.3375 62.0302 63.7209 61.7802C63.8542 61.6968 63.9987 61.6357 64.1487 61.5968C64.1932 61.5857 64.2376 61.5801 64.2876 61.5746C64.3376 61.569 64.3932 61.5635 64.4432 61.5635C64.6321 61.5635 64.821 61.6024 64.9933 61.6857L76.2895 66.8032L91.9141 73.8876L96.3037 75.8768L97.0149 76.1991L115.612 84.6282L118.235 85.8172L122.374 87.6953C122.863 87.9176 123.425 87.9176 123.919 87.6953L128.059 85.8172L141.011 79.9497L153.085 74.4766L181.295 61.6857C181.706 61.4968 182.189 61.5357 182.567 61.7802C182.589 61.7913 182.612 61.808 182.628 61.8246C182.65 61.8357 182.667 61.8524 182.689 61.8746C183 62.1247 183.178 62.5025 183.178 62.9026V129.907ZM139.71 79.9497L126.758 85.8172L123.691 87.2063C123.341 87.3619 122.941 87.3619 122.591 87.2063L119.524 85.8172H118.229L122.369 87.6953C122.858 87.9176 123.419 87.9176 123.914 87.6953L128.053 85.8172L141.005 79.9497H139.71ZM139.71 79.9497L126.758 85.8172L123.691 87.2063C123.341 87.3619 122.941 87.3619 122.591 87.2063L119.524 85.8172H118.229L122.369 87.6953C122.858 87.9176 123.419 87.9176 123.914 87.6953L128.053 85.8172L141.005 79.9497H139.71ZM96.3092 75.8768L97.0205 76.1991V75.6157L96.3092 75.8768ZM139.71 79.9497L126.758 85.8172L123.691 87.2063C123.341 87.3619 122.941 87.3619 122.591 87.2063L119.524 85.8172H118.229L122.369 87.6953C122.858 87.9176 123.419 87.9176 123.914 87.6953L128.053 85.8172L141.005 79.9497H139.71Z" fill="white"/>
<path d="M46.8239 131.774H16.6747C16.5247 131.769 16.4136 131.641 16.4191 131.497C16.4247 131.358 16.5358 131.246 16.6747 131.241H46.8239C46.9739 131.235 47.0961 131.346 47.1017 131.497C47.1072 131.647 46.9961 131.769 46.8461 131.774C46.8405 131.774 46.835 131.774 46.8239 131.774Z" fill="#3F3D56"/>
<path d="M29.9769 45.7555C28.5711 45.0443 28.0099 43.3218 28.7211 41.916C29.0379 41.2881 29.5824 40.7992 30.238 40.5436C32.2161 39.7823 34.4331 41.3381 36.5057 40.8936C38.5782 40.4491 39.7673 37.9821 39.2728 35.9262C38.7783 33.8703 36.9835 32.3256 35.0055 31.5866C32.3884 30.6143 29.4657 30.881 27.0709 32.3145C24.6927 33.7925 23.1981 36.354 23.0814 39.1545C23.0258 41.9605 24.476 44.5886 26.882 46.0333C27.3876 46.3834 28.0044 46.5278 28.6156 46.4445C29.1101 46.2945 29.5657 46.0611 29.9769 45.7555Z" fill="#230344"/>
<path d="M27.8543 32.1589C26.1374 29.803 23.7537 28.0083 21.0199 27.0026C18.2584 26.0135 15.2135 26.1802 12.5797 27.4637C9.94599 28.8028 8.17904 31.3921 7.89011 34.3315C7.55673 39.1433 11.6685 43.2273 12.0908 48.0336C12.5353 53.101 8.79025 57.574 3.71724 58.0185C2.46149 58.1296 1.19463 57.9796 0 57.5795C2.08921 59.2965 4.79519 60.0688 7.47338 59.7021C10.1516 59.302 12.5075 57.7129 13.891 55.3847C14.7634 53.74 15.2579 51.9231 15.3413 50.0617C15.5746 47.139 15.2579 44.1997 14.4133 41.3937C13.9522 39.8601 13.3298 38.2876 13.6188 36.7096C13.9577 35.0371 15.2635 33.7314 16.936 33.3869C18.2584 33.1368 19.6086 33.5425 20.8699 34.0036C22.1312 34.4648 23.4036 35.0038 24.7483 35.0371C26.0929 35.0649 27.5543 34.4537 28.0766 33.2146L27.8543 32.1589Z" fill="#230344"/>
<path d="M26.343 70.7594L21.52 53.1622L21.6034 53.1066C21.7089 53.0344 32.105 46.1722 44.2791 51.7064L44.5014 51.8342L41.6398 70.1037C41.512 70.965 40.7897 71.6151 39.9229 71.6484L28.1599 72.0985H28.0877C27.2654 72.0929 26.5541 71.5484 26.343 70.7594Z" fill="url(#paint2_linear_161_237)"/>
<defs>
<linearGradient id="paint0_linear_161_237" x1="17.008" y1="59.1244" x2="26.4205" y2="59.1244" gradientUnits="userSpaceOnUse">
<stop stop-color="#C436F1"/>
<stop offset="1" stop-color="#4831E4"/>
</linearGradient>
<linearGradient id="paint1_linear_161_237" x1="39.4731" y1="57.6114" x2="48.8862" y2="57.6114" gradientUnits="userSpaceOnUse">
<stop stop-color="#C436F1"/>
<stop offset="1" stop-color="#4831E4"/>
</linearGradient>
<linearGradient id="paint2_linear_161_237" x1="21.518" y1="60.8199" x2="44.4963" y2="60.8199" gradientUnits="userSpaceOnUse">
<stop stop-color="#C436F1"/>
<stop offset="1" stop-color="#4831E4"/>
</linearGradient>
</defs>
</svg>
